<?xml version="1.0" encoding="UTF-8"?>
<svg id="Layer_1" data-name="Layer 1" xmlns="http://www.w3.org/2000/svg" viewBox="0 0 515.34 250">
  <defs>
    <style>
      .cls-1 {
        fill: #ffce00;
      }

      .cls-2 {
        fill: #0000cd;
      }

      .cls-3 {
        fill: #282828;
      }
    </style>
  </defs>
  <path class="cls-1" d="M90.74,29.22h86.46c16.53,0,29.96,13.42,29.96,29.96v146.28c0,10.18-8.27,18.45-18.45,18.45H30.93c-10.18,0-18.45-8.27-18.45-18.45v-97.98c0-43.19,35.07-78.26,78.26-78.26Z"/>
  <g>
    <path class="cls-3" d="M246.67,91.06l-10.4,19.39c-.5.91-1.25,1.33-2.25,1.33h-6.99c-1.58,0-2.08-1-1.33-2.33l15.06-26.04-14.23-24.55c-.75-1.33-.25-2.33,1.33-2.33h7.41c1.08,0,1.83.41,2.33,1.33l9.49,17.81,9.4-17.81c.5-.91,1.25-1.33,2.33-1.33h7.07c1.58,0,2.08,1,1.33,2.33l-14.15,24.55,14.98,26.04c.75,1.33.25,2.33-1.33,2.33h-7.41c-1.08,0-1.84-.42-2.33-1.33l-10.32-19.39Z"/>
    <path class="cls-3" d="M307.68,96.97c0,10.23-5.16,15.81-14.56,15.81-3.75,0-6.57-1.08-8.57-3.25h-.17v13.64c0,1.25-.66,1.91-1.91,1.91h-5.24c-1.25,0-1.91-.67-1.91-1.91v-37.94c0-10.24,5.74-15.81,16.14-15.81s16.23,5.57,16.23,15.81v11.73ZM298.61,85.99c0-5.83-2.41-8.74-7.15-8.74s-7.07,2.91-7.07,8.74v10.31c0,5.74,2.33,8.66,7.07,8.66s7.15-2.91,7.15-8.66v-10.31Z"/>
    <path class="cls-3" d="M318.26,111.78c-1.25,0-1.91-.67-1.91-1.91v-54.42c0-1.25.66-1.91,1.91-1.91h5.24c1.25,0,1.92.67,1.92,1.91v54.42c0,1.25-.67,1.91-1.92,1.91h-5.24Z"/>
    <path class="cls-3" d="M366.46,85.24v11.73c0,10.23-5.75,15.81-16.14,15.81s-16.23-5.58-16.23-15.81v-11.73c0-10.24,5.66-15.81,16.23-15.81s16.14,5.57,16.14,15.81ZM357.38,85.9c0-5.74-2.33-8.65-7.07-8.65s-7.15,2.91-7.15,8.65v10.32c0,5.82,2.41,8.74,7.15,8.74s7.07-2.91,7.07-8.74v-10.32Z"/>
    <path class="cls-3" d="M374.8,85.07c0-10.4,4.82-15.64,14.48-15.64,3.58,0,6.73.75,9.32,2.33,1,.58,1.25,1.5.66,2.58l-1.91,3.41c-.5,1.08-1.33,1.25-2.58.66-1.42-.75-2.99-1.16-4.57-1.16-4.25,0-6.33,2.49-6.33,7.57v25.04c0,1.25-.66,1.91-1.91,1.91h-5.24c-1.25,0-1.91-.67-1.91-1.91v-24.8Z"/>
    <path class="cls-3" d="M435.06,92.06c0,1.25-.66,1.91-1.92,1.91h-20.8v1.66c0,6.57,2.66,9.32,8.65,9.32,2.75,0,5.24-.91,7.49-2.83,1.08-.91,1.91-.83,2.66.25l2.24,3.25c.66.92.58,1.83-.33,2.66-3.33,3-7.49,4.5-12.4,4.5-11.56,0-17.39-5.49-17.39-16.48v-11.06c0-10.24,5.66-15.81,15.89-15.81s15.89,5.57,15.89,15.81v6.82ZM426.41,87.15v-1.25c0-5.74-2.33-8.65-6.99-8.65s-7.07,2.91-7.07,8.65v1.25h14.06Z"/>
  </g>
  <g>
    <path class="cls-3" d="M246,140.58c13.9,0,20.22,5.49,20.22,17.47s-6.32,17.64-20.22,17.64h-7.49v18.22c0,1.25-.66,1.91-1.91,1.91h-6.16c-1.25,0-1.91-.67-1.91-1.91v-51.42c0-1.25.66-1.91,1.91-1.91h15.56ZM238.51,167.04h7.49c6.99,0,10.15-2.83,10.15-8.9s-3.16-8.9-10.15-8.9h-7.49v17.8Z"/>
    <path class="cls-3" d="M277.89,136.84c3.08,0,5.41,2.25,5.41,5.33,0,3.25-2.17,5.41-5.41,5.41s-5.41-2.16-5.41-5.41,2.33-5.33,5.41-5.33ZM275.23,195.83c-1.25,0-1.91-.67-1.91-1.91v-37.53c0-1.25.66-1.91,1.91-1.91h5.24c1.25,0,1.92.67,1.92,1.91v37.53c0,1.25-.67,1.91-1.92,1.91h-5.24Z"/>
    <path class="cls-3" d="M294.29,195.83c-1.25,0-1.91-.67-1.91-1.91v-54.42c0-1.25.66-1.91,1.91-1.91h5.24c1.25,0,1.92.67,1.92,1.91v54.42c0,1.25-.67,1.91-1.92,1.91h-5.24Z"/>
    <path class="cls-3" d="M316.02,136.84c3.08,0,5.41,2.25,5.41,5.33,0,3.25-2.17,5.41-5.41,5.41s-5.41-2.16-5.41-5.41,2.33-5.33,5.41-5.33ZM313.35,195.83c-1.25,0-1.91-.67-1.91-1.91v-37.53c0-1.25.66-1.91,1.91-1.91h5.24c1.25,0,1.92.67,1.92,1.91v37.53c0,1.25-.67,1.91-1.92,1.91h-5.24Z"/>
    <path class="cls-3" d="M362.54,181.02c0,10.23-5.16,15.81-14.56,15.81-3.75,0-6.57-1.08-8.57-3.25h-.17v13.64c0,1.25-.66,1.91-1.91,1.91h-5.24c-1.25,0-1.91-.67-1.91-1.91v-37.94c0-10.24,5.74-15.81,16.14-15.81s16.23,5.57,16.23,15.81v11.73ZM353.47,170.04c0-5.83-2.42-8.74-7.16-8.74s-7.07,2.91-7.07,8.74v10.31c0,5.74,2.33,8.66,7.07,8.66s7.16-2.91,7.16-8.66v-10.31Z"/>
    <path class="cls-3" d="M375.79,136.84c3.08,0,5.41,2.25,5.41,5.33,0,3.25-2.17,5.41-5.41,5.41s-5.41-2.16-5.41-5.41,2.33-5.33,5.41-5.33ZM373.13,195.83c-1.25,0-1.91-.67-1.91-1.91v-37.53c0-1.25.66-1.91,1.91-1.91h5.24c1.25,0,1.92.67,1.92,1.91v37.53c0,1.25-.67,1.91-1.92,1.91h-5.24Z"/>
    <path class="cls-3" d="M412.58,169.62c0-5.58-2.24-8.32-6.74-8.32s-6.82,2.74-6.82,8.32v24.3c0,1.25-.66,1.91-1.91,1.91h-5.24c-1.25,0-1.91-.67-1.91-1.91v-24.88c0-10.07,5.58-15.56,15.89-15.56s15.81,5.49,15.81,15.56v24.88c0,1.25-.66,1.91-1.92,1.91h-5.24c-1.25,0-1.92-.67-1.92-1.91v-24.3Z"/>
    <path class="cls-3" d="M460.95,169.95v11.07c0,10.23-5.74,15.81-16.31,15.81s-15.47-4.58-15.47-13.15c0-8.07,5.33-12.65,14.97-12.65h7.74v-.41c0-6.58-2.57-9.32-8.32-9.32-2.57,0-4.99.91-7.32,2.66-1.08.75-1.91.66-2.66-.42l-2.24-3.5c-.75-1.08-.58-1.91.41-2.66,3.67-2.58,7.91-3.91,12.65-3.91,10.73,0,16.56,5.57,16.56,16.47ZM451.87,180.27v-2.5h-6.49c-4.57,0-7.15,2-7.15,5.66s2.17,5.58,6.41,5.58c4.82,0,7.24-2.91,7.24-8.74Z"/>
    <path class="cls-3" d="M483.76,196.83c-6.49,0-11.48-1.5-15.06-4.41-.91-.75-1-1.58-.42-2.66l2.25-3.41c.66-1.08,1.5-1.17,2.58-.42,2.99,2.08,6.16,3.16,9.57,3.16,4.33,0,6.74-1.74,6.74-4.99,0-2.75-1.83-4.08-7.74-4.99-9.65-1.42-13.23-5.24-13.23-12.9s6.07-12.73,15.14-12.73c4.91,0,9.07,1.08,12.32,3.25.91.58,1.08,1.5.49,2.66l-2.08,3.33c-.58,1-1.5,1.17-2.57.5-2.08-1.33-4.41-2-7.15-2-4.75,0-7.07,1.66-7.07,4.99,0,2.58,1.75,3.83,7.41,4.58,9.65,1.41,13.48,5.33,13.48,13.31s-5.66,12.73-14.64,12.73Z"/>
  </g>
  <g id="features">
    <path id="PH11" class="cls-2" d="M152.93,193.85l-.08-.04-.16-.2-.08-.22-.08-.46-.14-.28-.04-.1-.04-.4-.06-.04-.1-.02-.2-.08-.08-.02-.04-.04-.02-.12.02-.12.04-.12.06-.1.06-.04.08-.12.06-.54.06-.16.1-.04.08.04.06.06.04.1.18.16.18.14.16.16.06.24-.06,1.39.02.24.08.16.02.1-.04.1-.06.14-.08.24h0ZM147.85,208.09l.06-.04.38-.2.16-.12h.02l.14-.18.93-2.14.04-.04h.08l.06-.02v-.08l-.02-.1-.02-.56.02-.1.34-1.05v-.2l.06-.04.04-.06.04-.06.02-.08.06-.3v-.14l-.04-.1-.06-.08-.08-.1-.08-.12v-.2l-.02-.22v-.12l.02-.14.06-.14v-.12l-.24-.38-.26-.5-.2-.18-.1-.02h-.12l-.1.02-.2.1-.08-.06-.1-.06-.24.02-.5-.08-.28.04-.1-.02-.14-.04-.16-.1-.36-.36-.14-.1-.26-.14-.1-.06v-.28l-.06-.04-.1-.04-.08-.02-.04-.02-.02-.04v-.08l.04-.08.08-.06.08-.1.06-.26.04-.56.1-.24.18-1.09-.02-.16-.08-.18-.26-.3-.06-.14-.06-.5.18-.69,1.11-1.21v-.5l.04-.04.06-.04.26-.08.06-.04h.02l.06-.08-.02-.04-.04-.04-.04-.14-.04-.62-.06-.18-.14-.14-.38-.22-.14-.14-.14-.16.02-.06.12-.28.12-.18.04-.08.02-.2-.08-.48-.02-.38-.06-.28v-.16l.08-.56.34-1.15.02-.14-.04-.12-.1-.12.02-.1h.08l.08-.04.04-.06.04-.08.04-.24.08-.2.06-.2-.02-.26.14.06.1-.02.12-.02h.12l.12.02.3.08.14.02.22-.16.14-.3.08-.34.02-.42v-.14l-.04-.14-.14-.36-.04-.16-.06-.36-.08-.32-.38-.89v-.02l3.24.02,5.48.02h1.17l.1.3.14.3.24.22.3.14.22.08-.02.14.1.3.16.28.2.18.32.2.04.06.04.12.26.36.26.16.54.06.24.08-.08.24-.04.24-.04.52.06.26.2.54.08.5.08.24v.22l-.12.22-.12.08-.12.04-.08.08-.04.16.04.04.24.18-.08.26-.02.5-.12.2.1.06.34.2h.08l-.06.22-.26.32-.04.2-.04.08-.08.04-.1.02-.08.04-.06.1-.22.58-.06.12-.36.32-.16.24-.08.3-.02.38-.16.22-.36.04-.42-.08-.32-.14-.26.24-.16.32-.06.32-.02.28.06.12.28.24.1.1.04.18.02.22-.02.2-.08.08-.32-.12-.2-.3-.24-.71-.28-.3-.32-.16-.22.08v.46h-.06l-.04-.06-.12-.16-.04.22.12.24.14.22.16.38.2.18.2.14.12.1.02.24-.14.44-.16.95-.02,1.61-.18.85-.04.99-.08.18-.14-.04-.04-.16-.06-.54-.02-.12-.36-.26-.04-.1-.02-.12.02-.14v-.12l-.26-.5-.14-.18-.06-.22-.14-1.35.02-.26.14-.69-.02-.22-.1-.4-.04-.22v-.3l-.04-.12-.12-.06-.28-.08-.2-.12-.42-.58-.06-.2.08-.5.02-.22-.12-.24-.22-.22-.44-.4-.12-.18-.06-.16-.06-.44-.44-1.05v-.44l.02-.24v-.22l-.08-.14-.16-.04-.06-.02-.18.04-.66.48-.62.36-.12.1-.1.08-.12.22-.02.24.04.71v.22l-.04.1-.1.14-.02.1-.04.1-.4.38-.3.16-.36.08-.34.18-.24.38-.02.48-.04.24-.12.1-.48.58-.24.42-.16.46-.08.5-.04.52.04.18.14.42.04.22.08.1.18.08.14-.08-.02-.3.34.24.46.6.28.28.22-.12.2.08.18.18.08.2v.42l.04.16.32.66.12.16.04.08v.12l-.02.24.02.12.04.08.1.14.52,1.41.04.18v.24l-.04.22-.12.2-.04.12.08.22-.04.1-.04.1-.08.32-.18.44-.79.97-1.05,1.47-.66,1.19-.16.2-.2.18-.16.08-.18.02-.52-.04-.16-.04-.02-.04h0ZM149.06,210.43h-.06l-.14-.04-.2.02-.18.04-.14-.06-.08-.1-.1-.06v-.06l.08-.08.18-.24.2-.1h.3l.14.06.04.06.04.14-.02.32-.06.1h0Z"/>
    <path id="PH13" class="cls-2" d="M159.5,182.9l-.22-.08-.3-.14-.24-.22-.14-.3-.1-.3h-1.17l-5.48-.02-3.24-.02-.1-.3-.06-1.07-.08-.24-.26-.46-.04-.26.02-.22.04-.18.02-.18-.06-.22-.14-.4-.02-.38.02-.38-.1-.52.18-1.61-.04-.95-.26-.69-.02-.48.34-1.13-.5-.64-.46-.46-.04-.24-.08-.1-.08-.06-.08-.08-.02-.12v-.38l-.02-.04.06-.06.1-.02.1.1.12.26.32.44.22.16.24.06.71.04.46.1.22.02.24-.06.58-.32.1-.12.08-.24.08-.38v-1.17l-.02-.18-.06-.12-.08-.1-.06-.14v-.1l.02-.18-.02-.1-.02-.1-.1-.22-.06-.28-.22-.34-.06-.32-.06-.08-.04-.06-.02-.06v-.32l-.02-.06-.02-.16-.24-.62-.02-.1-.04-.22-.38-1.49-.02-.2.04-.2.06-.16.52-.89.04-.1.14.16.18.16.2.14.36.1.3.16.22.02-.06.26.1.32.12.3.06.28.1.2.26.2.3.12.22-.04-.02.04v.04l-.02.04-.04.04h.14l.08.04.08.1.1.02.24-.02h.1l.2.24.1.06.1.04.62.08.2.12.36.32.1.04h.14l.12.02.04.08.02.1.1.14.04.1.1-.2.04-.1h.06v.3l-.04.06-.1.1-.12.04-.3.08-.08.1-.02.14.06.1.12.08.12.04.18.04.12-.04.3-.14-.02.44.04.36.16.34.5.52.08.04.12.02.14-.02.22-.1.36-.12.38-.38.22-.12.22.02.04.16-.04.2-.22.36-.06.26-.08.48v.36l-.08.5.04.12.12.04.14.02.1.04.08.08.1.28.08.12.79.79.1.22.02.14.12.42-.04.16v.1l.14.08-.02.08-.06.08-.02.02-.08.26-.12.26-.18.22-.24.08-.4.28-.06.02v.16l.08.08.2.14v.06l-.04.02v.02l-.02.04-.14-.06-.12-.02h-.22l-.14.04-.26.22-.38.16-.2.26-.1.24.22.24.18.48.12.14.1.02.34-.02.22.08h.1l.12-.08-.22-.14-.06-.08.06-.08.12.02.14.06.14.02.12-.1.24.12.71.12v-.02l.04-.04.04-.02h.06v.02l.04.1.08.14.22.16.04.1-.08.16.06.02.04.06.06.06-.3-.02-.1.04-.06.08-.02.26.02.06.16-.06.04.18-.08.22-.26.34-.04.02-.12.08-.1.08.08.04.04.06.14.28.1.08.16.04.08.1-.12.26-.34.4-.06.18.08.2.16.1.16-.04.18-.1.32-.12.38-.32.04.12-.06.93-.04.16.02.16.12.22-.26.14-.12.4.04.42.2.28-.2.2-.42.3-.12.24v.14h0ZM155.33,163.7l-.2.42.06.12v.18l-.06.16-.1.06-.18.04h-.06l.06-.18-.08-.06-.12-.02h-.1v-.08h.14v-.08l-.22-.14v.08l-.02-.1v-.12l.1-.24.04-.06.04-.04.04-.02.02-.1v-.3l-.1-.16-.02-.26.08-.24.2-.08.06.06.02.06-.02.1.1-.04.04-.04.02.18v.26l.02.22.16.1.12.08-.04.24h0ZM157.3,162.11l-.02.14-.26.1-.18.14-.08.06-.12.02-.28-.02-.42-.16h-.14l.08.22-.16-.12-.16-.18-.26-.36v-.06l.02-.04v-.06l-.02-.06-.06-.04h-.1l-.08-.02-.06-.1.14.02.14-.02.14-.04.1-.12-.12-.04-.16-.1-.1-.1.04-.16.66-1.07.04-.1v-.1l-.02-.1-.02-.1.08-.1.2-.16.1.04.5,1.11.12.58v.12l-.06.12-.16.14-.08.1.22.04.14.04.1.1.14.14.08.12.08.18h0ZM152.26,161.22l-.16.08-.22-.04-.16-.12-.04-.16.02-.18-.04-.2-.1-.1-.3-.08-.12-.12h.14l-.08-.06-.04-.06v-.06l.06-.06v-.06h-.26l-.1-.18.02-.26.12-.24.04.1.08.04.06-.04.04-.14-.04-.04-.14-.18-.04-.1h-.08l-.06.12-.06.02-.1-.04-.1-.04-.08.06-.08.1-.1.08h-.16l-.08-.12v-.16l-.02-.12-.16-.06-.02-.06.02-.28-.02-.1.16-.08.08-.2.02-.22-.04-.18.08-.04h.08l.06.04.06.08-.02-.18-.08-.14-.02-.14.12-.14-.04-.02-.02-.04-.02-.04-.06-.06.04-.16-.08-.2-.02-.16.24-.06.14-.02.04-.08v-.24l-.02-.08-.04-.06v-.04l.06-.1.06-.02h.08l.06.02.06.12.1.04.08-.02.08-.04.06-.12.02-.42.08-.26.04-.12.1-.06.12-.02.08.06.16.26.14.36v.38l-.22.75-.02.28-.04.1-.04-.02-.1-.02-.08.04v.14l.08.1.16.12.08.16-.1.16.06.08-.12.06.04.12.12.06.18-.02-.08.3v.18l.06.16.16.2.08.14.02.14-.04.14-.08.16-.08.16-.06.06.02.08.08.44-.12.16.1.18.18.18.14.16.02.18-.08.14h0Z"/>
    <path id="PH10" class="cls-2" d="M148.6,181.82v.02l.38.89.08.32.06.36.04.16.14.36.04.14v.14l-.02.42-.08.34-.14.3-.22.16-.14-.02-.3-.08-.12-.02h-.12l-.12.02-.1.02-.14-.06.02.26-.06.2-.08.2-.04.24-.04.08-.04.06-.08.04h-.18l-.22-.06h-.08l-.04.02-.02.04-.02.06-.02.02h-.02l-.08.04-.08.04-.02-.02-.46.56-.22.16-.18.08-.36.14-.14.08-.04.1-.04.28-.08.12v.02l-.12.04-.14.04-.02.04-.24.06-.06.06-.04.08h-.02l-.06.04-.12-.02-.18-.12-.14-.16-.22-.08-.08-.02-.08.02h-.02l-.08.08-.1.1-.1-.08-.08-.12-.06-.1-.02-.12-.02-.42-.08-.26-.04-.14-.06-.12-.12-.12-.1-.06-.1-.08-.1-.14-.02-.1-.04-.22-.04-.1-.04-.1-.06-.06-.08-.06-.22-.16-.06-.06-.02-.08-.06-.12-.12-.18-.04-.08-.06-.3-.34-.6-.48-.58-.06-.04-.18-.06-.08-.06-.04-.12-.02-.1v-.1l-.02-.1-.2-.28v-.12l.1-.08.1-.06h.14l.18.02.14-.06.06-.24-.06-.14-.12-.14-.28-.24-.44-.22-.79-.77-.4-.32-.89-.44-.22-.2-.04-.1-.02-.14-.04-.12-.08-.06h-.34l-.18.02-.1.08-.02.02-.08.34.06.79-.08.3-.24.3-.1.08-.04.08.02.04-.02.04-.12.02h-.46l-.14.04-.26.12-.1.14-.04.18-.24.6-.08.14-.12.1-.12.04-.42.02-.04.1.04.54-.1.3-.46.54-.04.36-.1.36-.4-.04-.93-.38-.08.4-.48-.02-.26-.06-.16-.14-.58-.79-.22-.16-.24-.06-.26-.02-.46-.18.14-.16.5-.28.22-.18.1-.2-.02-.2-.08-.2-.06-.22v-.02l.12-.08.06-.04.38-.22,1.43-1.15.14-.04.22-.04.16-.1.24-.3.26-.2.34-.14.38-.1h1.29l.46-.06.36-.18.12-.14.16-.32.14-.16.04-.12-.04-.12-.08-.1-.04-.12.02-.12v-.02l.04-.1.1-.16v-.06l-.02-.1.02-.06.02-.04.08-.06.04-.04.1-.24.02-.12.04-.4.04-.22.16-.44.22-.38.32-.36.36-.28.42-.18h.28l.06.1v.18l.04.16.06.02.24.04.02.02.08.02.1.04.16.1.32.36.12.08.18.06.62.02-.1.18-.08.22-.04.24v.24h.08l.08-.28.12-.18.22-.08.32.1.04-.08.18-.14.04-.02.14-.04.04-.02v-.06l-.04-.06-.02-.06-.02-.04.04-.34.04-.1.04-.08.12-.18.06-.12-.04-.2-.2-.38-.06-.22.06-.24.12-.14.14-.12.12-.18-.08-.22v-.24l.08-.48v-.93l-.08-.48.02-.24.1-.22.08-.1.12-.1.12-.06.12.04.12.08h.12l.1-.02.14-.02.2.06.22.08.16.14.08.14.1.08.85.46.08.08.26.32.16.1.22.36.14.12.1-.02.24-.14.22-.08.2-.1.1-.16.1-.95-.04-.2-.04-.06-.06-.06-.04-.08-.02-.1.02-.12.1-.22.04-.14v-.14l.02-.08.06-.06.04-.04.02.04v.38l.02.12.08.08.08.06.08.1.04.24.46.46.5.64-.34,1.13.02.48.26.69.04.95-.18,1.61.1.52-.02.38.02.38.14.4.06.22-.02.18-.04.18-.02.22.04.26.26.46.08.24.06,1.07.1.3h0ZM142.41,168.96l.06.2-.08.3.02.18-.02.18-.14.14-.08.04-.1.02-.08-.02-.06-.14-.08-.02h-.1l-.08-.02-.66-.32-.26-.26-.12-.36.12-.4.28-.24.38-.1.4.12.18.28.1.1.12.06.1.08.1.18h0ZM128.87,175.05l.14.06.06.04.04.06.1.22.12-.1v-.22l.04-.12.06-.08.16-.22-.14-.12.14-.08.18.02-.04.18.87.2.14.06.1.1.08.18h.08l.08-.08.04.02.1.2h-.02l.12.34.04.06.06.16.46.56.18.36.12.48.1.48.04,1.31.16.64-.02.22-.1.12-1.15,1.03-.22.12-.48.02-.18.1-.08.28v.02l-.2.02-.18-.02-.08-.06-.04-.08-.08-.08-.12-.04-.44-.08-.18-.32-.04-.64.06-1.11-.08-4.23h0Z"/>
    <path id="PH14" class="cls-2" d="M132.25,185.04l.08-.4.93.38.4.04.1-.36.04-.36.46-.54.1-.3-.04-.54.04-.1.42-.02.12-.04.12-.1.08-.14.24-.6.04-.18.1-.14.26-.12.14-.04h.46l.12-.02.02-.04-.02-.04.04-.08.1-.08.24-.3.08-.3-.06-.79.08-.34.02-.02.1-.08.18-.02h.34l.08.06.04.12.02.14.04.1.22.2.89.44.4.32.79.77.44.22.28.24.12.14.06.14-.06.24-.14.06-.18-.02h-.14l-.1.06-.1.08v.12l.2.28.02.1v.1l.02.1.04.12.08.06.18.06.06.04.48.58.34.6.06.3.04.08.12.18.06.12.02.08.06.06.22.16.08.06.06.06.04.1-.2-.02-.69-.18h-.3l-.54.08h-.48l-.12-.04-.1-.06-.16-.1-.1-.12-.12-.2-.06-.1-.2-.12h-.18l-.44.22-.18,1.41.08.38.3.38.1.22v.18l-1.73,2.54-.08.26.16.06.08.04.2-.02.12-.04.04-.02.08-.06.14-.16.22-.32.14-.12.18-.04.28.04.14.08.02.16-.1.26-.38.91v.08l.12.18.14.14.14.08.14.06.2.02.18.04.22.18h.06v.3l.02.06.04.08.18.12.14.06.34.06.14.06.14.1.14.06h.16v-.02l.12-.08.16-.3.14-.1-.06-.04-.06-.06.04-.16-.06-.16-.12-.16-.14-.08-.18-.24.2-.18.3-.16.1-.08v-.06l-.14-.12-.12-.12-.06-.2.06-.12.26-.28.16.2.04.06.02.02.4.66.2.44-.06.2-.06.08-.06.18-.02.18v.16l.06.2.1.08.4-.02.06,2.26.08.1.54.32-.18.28-.02.22.1.2.24.28-.44.02-.34-.06-.3-.16-.32-.26-.2-.3-.2-.38-.22-.3-.28-.06.18-.75-.79.02.04-.18-.44.14-.24.08-.12.12.08.3.02.1-.2.42-.42.22-.5.08-2.22-.02-.2-.02v-.1l.04-.1-.06-.1-.26-.04-1.97.02h-.02l.02-.22-.04-.22-.2-.08-.04.02-.1.16-.08.06-.02-.02-.02-.06-.04-.02-.08-.02-.08-.08-.06-.1-.04-.08v-.12l.06-.2.02-.1.02-1.15.16-.54.44-1.09.22-.24.18-.04.26-.14.4-.26.4-.34.18-.18.12-.3.2-.18.06-.1.02-.1-.02-.34.02-.28.06-.22.22-.4-.16-.12-.14-.02-.34.06-.12-.06-.08-.16-.06-.1-.1-.04-.12-.18-.5-1.09-.32-.46-.48-.32-.08-.02-.58-.42-.52-.28-.08.08-.18-.08-.26-.04h0ZM100.13,208.37l.16.22.06.18-.12.24-.2.02-.32-.1-.06-.04-.12-.12-.1-.14-.04-.1.04-.12.12-.1.14-.08.14-.04.12.02.18.16h0ZM111.5,203.07l.02.12-.06.06-.26.14-.48.18-.12-.04-.56-.36-.22-.24-.08-.2.18.02.56.36.26.1.34-.02.3-.12h.12,0ZM97.01,199.57l.04.12.02.08-.02.22-.22.75-.06.1-.08.08-.12.06h-.14l-.42-.06-.12-.06-.08-.12.04-.08.1-.04h.14l.08-.06.08-.12.08-.14.02-.1.04-.08.16-.24.06-.24.08-.1.1-.08.1-.02.08.06.04.08ZM103.86,205.63l-.04.1-.06.02-.3-.02-.38.14-.16-.02-.12-.18v-.16l.08-.14.1-.1.12-.04h.18l.16.08.14.1.1.1.14.06.04.06h0ZM105.88,203.72l.08.18-.1.24-.1.04h-.1l-.1.04-.02.14v.18l-.04-.02-.4.06-.08.04-.1.08-.3.32-.12.08h-.12l-.1-.06-.1-.08-.1-.16v-.32l-.26-.28-.42.02-.89.4-.2.12-.08.04-.08-.02-.08-.04-.12-.2-.06-.04-.44-.08-.1.04-.38.24-.22.12h-.1l-.12-.04-.06-.04v-.14l-.02-.04-.06-.04-.14-.02-.06-.04-.16-.24-.04-.2.04-.2.14-.22.18-.16.4-.18.3-.2.24-.04.08-.04.24-.34.1-.08.1-.02.38.02h.4l.12.06.24.14.12.02.2.12.26.56.16.14.2-.04.18-.16.2-.1.48.22.24.02h.46l.24.06.18.14h0ZM100.07,206.98l-.1.02-.16.08-.22.08-.2.02-.12.04-.1-.04-.04-.12.12-.18.28-.12h.16l.12.02.22.1.04.1ZM100.58,206.46l-.06.24-.16.12-.2-.1.02-.34.12-.2.14.08.14.2h0ZM93.1,212.36l-.06.42-.06.24-.12.14-.14-.04-.12-.08-.08-.1-.02-.18.08-.32v-.16l-.08-.08-.06.02-.04.08-.02.08-.02.06h-.26l-.08-.06-.08-.1-.06-.12-.04-.1-.1.16-.04.34-.08.16-.16.06-.16-.04-.14-.06-.12-.04-.22.04-.08.08-.04.12-.1.14-.08.02h-.18l-.04.08-.08.34-.16.14-.12-.04-.1-.08-.12-.02-.1.06-.14.2-.1.04h-.34l-.14.06-.08.06h-.1l-.12-.12-.02-.14.02-.36-.06-.18.1-.08.08-.04.38-.14.32-.16.08-.06.06-.02.38-.22.14-.26.08-.1.34-.04.26-.1.1-.02.08-.04.18-.18.1-.02.08.04.08.02.1-.04.02-.06.04-.2.06-.08.28-.16.1-.14.14-.06.24-.1.2-.14.12-.04.1.02.06.08.02.12v.56l.04.08.08.02.1-.04.08-.02.08.08.02.16-.16.66h0ZM85.14,216.6l.04.18-.02.2-.02.18-.06.16-.3.73-.12.1v-.66l.06-.62-.06-.73-.08-.34-.14-.3.12-.04.12.04.12.08.06.12.04.08.02.08.02.1v.08l.04.2.16.36h0ZM88.99,216.62l-.08.02h-.18l-.16-.08-.06-.14.2-.04.24.12.04.12h0ZM88.35,215.73l-.08-.28.02-.18.12-.06.14.06.06.08.22.1.08.2v.14l-.08.1-.06.02h-.18l-.24-.18h0ZM88.27,213.85l-.04.06-.12.06-.26.06-.06-.08.04-.22.22-.36.14-.16.16-.1.08.02v.16l.02.12.04.12.02.14-.06.12-.06.04-.06-.04-.04.02-.02.04h0ZM112.95,195.54l.1.04.14.14.08.08.12.04.26.06.14.02.02.04.06.1.08.1.12.04.48.08.12.04.06.06.06.06.06.06.1.04.28.1.1.04.34.22.06.1-.14.16-.22.08h-.5l-.2.12-.12.14-.1.14-.08.16-.04.18-.06.48-.1.18-.24.08-.24.02-.24.04-.71.26-.2.04h-.46l-.36.06-.04-.02-.02-.22-.02-.1-.04-.08-.77-.64v-.56l-.04-.2-.22-.1-.24-.02-.2-.08-.08-.28.04-.28.12-.18.18-.08.89-.08.1.36.2.04.18.64,1.45-.08-.46-.93-.08-.48v-.24l.18-.02.1.02h0ZM108.07,197.41l-.08.06-.06-.1-.04-.22-.06-.16-.12-.16-.08-.12.08-.06.1-.1.08-.18.1-.1.14.16v.75l-.06.24h0Z"/>
    <path id="PH09" class="cls-2" d="M122.4,188.63l.02.12-.02.08-.08.06-.06.02-.08-.02-.06.02-.32.22-.12.08-.1.02-.14.02-.06.02-.04.04-.06.14-.04.04-.16.04-.12-.04-.08-.12-.08-.16-.06-.28-.02-.4.1-.38.28-.14.16.1.12.16.12.12.18-.02.08-.1v-.14l.04-.12.12-.08.2.08.22.16.18.18.12.18-.22-.04-.08-.04.06.18h0ZM130.38,182.14v.02l.06.22.08.2.02.2-.1.2-.22.18-.5.28-.14.16-.06-.02-.24-.04-.69.04-.2.04-.26.1-.24.12-.14.12.04.38.3.28.24.34-.14.48-.1.12-.1.1-.12.08-.12.06-.38.08-.1.04-.04.08v.36l-.04.04-.22-.14h-.1l-.1.18.14.22.22.2.1.18.08.26.16.14.18.12.18.16.08.24-.02.24-.06.22-.12.18-.1.04-.12-.04-.34-.26-.34-.16-.16-.1-.3-.34-.1-.18-.16-.1-.04-.06v-.24l-.02-.08-.04-.08-.18-.06-.22.02-.18.08-.08.14-.06.16-.14.08h-.18l-.14-.06-.32-.28-.14-.2-.06-.22.06-.22.16-.08.18-.04.2-.06.1-.18v-.22l-.12-.2-.24-.08-.14-.1-.06-.28-.02-.3-.04-.2-.12-.1-.12.1-.12.2-.12.2-.3.3-.06.14v.1l.04.12-.02.14-.04.04-.14.1-.04.04.02.06.04.06.02.04v.1l-.06.18-.16.24-.08.16-.02.16.02.32-.06.12-.12.04-.06-.02-.06-.06-.1-.04v-.02l-.26-.06-.08-.14-.16-.42-.12-.1-.12.04-.14.14-.12.14-.06.12v.16l.02.1-.02.08-.14.1-.12.06-.16.02h-.16l-.16-.08.08-.12-.04-.1-.06-.04h-.04l-.02.04-.06.02h-.04l-.04-.02v-.06l.02-.04.04-.04h.02l-.02-.24.06-.14.12-.04.22.12.02-.24-.08-.16-.12-.14-.06-.16-.08-.69-.06-.18.08-.14.08-.22.04-.22.02-.2-.1-.16-.26-.02-.44.06-.1-.06-.16-.22-.12-.08h-.48l-.08.02-.22.1-.14.04-.24.12-.91.73-.28.32-.44.62-.12.2v.12l.2.06.22-.06h.14v.28l-.08.14-.12.18-.14.18-.12.08.1-.38-.02-.06-.12-.02-.12.1-.08.14-.04.1-.12.12-.48.28-.14.22.06.24.16.22.12.2-.08.22-.08.1-.2.34-.14.08h-.22l-.14.04-.2.28-.16.48-.14.93-.04.5-.06.2-.44.62-.38.99-.14.26-.2.14-.12.16-.06.04-.24-.02-.1-.02-.52-.18-.83-.44-.26-.24-.42-.85v-.91l.06-.14.32-.71.77-.66.36-.18.1-.06.04-.06.02-.1-.02-.1-.08-.02-.12-.14.02-.28.14-.48-.02-.34.02-.12.04-.1.14-.2.04-.1.02-.26.08-.14.14-.12.18-.1.14-.1.18-.18.1-.16-.36-.16-.02-.18.12-.4v-.48l-.04-.24-.14-.1-.1-.14.1-.28.26-.48.93-1.15.26-.48.14-.16.12-.1.3-.22.34-.1.4-.24.83-.28.28-.04.16.1.04-.1.08-.04h.08l.08.06.2-.08.83-.18.42-.18.12-.08.2-.36.12-.16.04.12.1.24.2.12.26.06.24-.02,1.05-.16.14-.12.12-.02h.26l.12-.02.1-.04.22-.12.62-.52.12-.26-.14-.18-.38-.26-.04-.08-.04-.24v-.06l.06-.06.2-.12h.04l.02-.06.04-.06.06-.06.02-.12-.02-.12-.06-.24.02-.12.06-.18.24-.32.06-.2.04-.14.12-.16.14-.16.14-.1.16-.06.85-.12.36-.12h.18l.04.04.12.14.06.04.1.02.64-.06.18-.1.14-.14.16-.24.04-.08.16-.5.08-.12.16-.04.06.02.06.04.06.02h.08l.04-.04.14-.12.1-.06-.06-.12-.34-.4-.08-.12-.02-.12.08-.04.14-.02.14-.02.08.06h.06l.26.16.18.14.12.02h.12l.14-.06v.56l.08.26.2-.02.06.04.04.02.08,4.23-.06,1.11.04.64.18.32.44.08.12.04.08.08.04.08.08.06.18.02.2-.02-.02.1-.04.22-.02.12.02.02.04.04.14-.06h0Z"/>
    <path id="PH41" class="cls-2" d="M73.42,163.46l.04-.04.06-.18.04-.02.08-.02.06-.06.1-.1.87-.64.06-.1.12-.3.5-.5.12-.18.02-.12.06-.16.08-.18.38-.52.12-.1-.12-.24.18-.18.52-.26.08-.1.38-.83.08-.12.04.36v.16l-.08.08-.06.08.18.14.24.08.1-.12.04-.08.06-.08.08-.06.04-.04.06-.12.02-.06-.02-.02-.22-.38-.04-.16-.02-.22.04-.18.08-.06.22.02.14-.04.2-.16.18-.04.28.06.18-.02.16-.1.1-.18.02-.18-.04-.18-.08-.14.08-.04.02-.02.04.02.08.04.1-.12.16-.08.16-.06.16-.04-.02-.18.08-.14.04-.12-.16-.08-.1.04-.14.08-.12.02-.08-.14.02-.12.12-.16.12-.16.1-.08.18-.02.18.02.16.08.14.06.08-.14v-.12l.04-.08.24-.02-.06-.14-.1-.08-.06-.08v-.16l.06-.06.22-.08.1-.08-.02.12-.02.04-.04.06.06.14.08.64.1.08.18-.1.32-.3.1-.24.04-.06.08-.04.1-.04.08-.04.12-.24.36-.1.14-.14-.1-.12-.14-.14-.08-.12.04-.14.2.08.22-.1.2-.18.1-.18.28-1.47-.02-.14-.14-.16-.04-.06-.04-.1-.06-.08-.08-.02-.08.02-.1.12h-.08l-.12-.1-.04-.14.02-.32-.06-.14-.14-.12-.16-.08-.16-.06.32-.4.04-.04-.08-.12-.14-.08-.08-.08.08-.18-.16-.1.12-.1.16.02.04.26h.06l.02-.04.06-.12.04.1.06.04h.06l.06-.06h.08l-.04.14-.04.02-.08.06.16.3h-.22l.06.12.12.04.12-.02.14-.06-.08.22.04.12.12.08.14.18h.06v-.08h.08l.06.22.18.1.18.08.1.16.04.12.06.06.08.02.08-.1.08.08.06.12.08.12.02.08.04.06h.12l.12-.06.02-.08-.04-.1-.06-.1-.16-.34-.06-.06.04-.16.1-.16.04-.06-.08-.12-.16-.12-.18-.1-.14-.04h-.18l-.18-.02-.16-.12-.1-.22.02-.1.12-.22.02-.06-.1-.02-.16.02h-.14l-.06-.12.02-.62.06-.16v-.08h.08l.02.12.06.08.08.04h.14l-.1-.26-.26-.44-.02-.28.1-.14.14.16.16.22.14.14.12.02.1.04h.1l.1-.06.04-.14v-.3l.14-.28-.06-.14-.1-.06-.02.02-.18-.24-.08-.12-.04-.18.14.02.14-.12.1-.18.06-.16v-.24l-.08-.52.04-.18.06-.06.04-.04v-.06l.02-.06.02-.04h.08l.04.02v.06l.18-.18.08-.12.04-.12.04-.3.04-.16.06-.12.12-.02.08.12.04.16.02.14v.18l.02.08.02.12.06.12.06.1.1.06.04-.04.06-.04.04-.06.16.4.02.42-.08.46-.16.44-.28.46-.04.22.14.26.26.24.08.14.12.48-.02.08-.12.08-.22-.14-.16-.04-.06.06-.12.3-.02.14v.14l.06.24v.22l-.06.22v.12l.02.12.1.16.04.24.04.1.08.1.12.02.14-.02.08-.04.06-.06.04-.02.14-.04h.04l.04-.04.1.14v.16l-.06.14-.04.12.08.34v.42l-.04.22-.06.16v.1l.16.08.22-.02.16-.1.14.02.16.24-.1-.02-.1-.02-.08.02-.1.02.06.1.04.06v.06l-.02.08.14.14.1.44.08.22.46.2.12.16-.16.26-.08.04-.26.06-.1.06-.22.34-.1.04-.5.44-.18.26-.14.08-.22.04h-.44l-.14-.02-.16-.06-.12-.02-.14.06-.32.2-.22.06-.22.06-.24.16-.75.75-.32.44-.22.46-.16,1.05-.28.3-.38.16-.5.14-.12.04-.22.14-.1.04-.12.02-.26-.02h-.14l-.1.06-.2.12-.12.04-.12.04-.24.04-.52.02-.3.08-.28.14-.32.22-.24-.08-.24.12-.18.24-.08.28.06.34.22.46.1.28-.08.58-.14.06-.16-.04-.16-.12-.06-.16.06-.18-.06-.06-.18-.02-.12.08v.16l.04.2-.04.16.12.06.08.08.02.12-.06.12.28-.04.18.14-.02.16-.3.04.02.16-.06.2-.1.2-.12.14-.04.1-.02.08-.04.06-.22.04-.06.06-.32.52-.5.83-.38.38-.06.1-.04.2-.12.2-.42.56-.06.04-.4.28-.1.02-.16.1-.54.58-.16.28-.12.12-.2.04h-.44l-.1.02-.26.16-.12.04-.66.02-.18.1-.08.06-.28.12-.06.04-.06.34-.14.3-.02.04.02.12v.06h-.12l-.08.02-.02.08-.04.2-.1.26-.24.48-.48.71-.14.12-.97.52-.77.6-.71.77-.2.14-.24.06-.24.02-.14.06-.12.08-.2.06-.22.02-.62-.08-.26.1-.08.24v.46l-.08.22-.3.4-.06.24-.04.12-.1.06-.1.02-.06-.06-.04-.1h-.14l-1.01.3-.36.16-.28.22-.04.06-.08.18-.04.04-.36.12-.08.18-.14.16-.3.2-.26.32-.08-.04-.02-.3.02-.14.1-.2.06-.24.06-.08.08-.08.04-.04.02-.1-.02-.24v-.34l.04-.04.1-.08.04-.26.1-.2.24-.38-.02-.02-.06-.2.18.04.08-.16.04-.22.1-.12.12-.04.16-.14.16-.18.12-.14h-.14l.22-.36.18-.16.44-.14.18-.16.16-.18.77-1.19.26-.28.85-.73.18-.32.08-.24.08-.16.14-.1.26-.02.14-.12.08-.02.04.1.04.06.1.02.12-.02.1-.02.12-.1.08-.1.12-.36.02-.02.06-.06.04-.08-.02-.08-.06-.1.14-.12.44-.28.14-.06.18-.1.24-.52.16-.12.44.06.22-.02.24-.1v.12l.02.1.04.1.1.06.14-.12.1-.12.2-.3.1-.1.79-.5.08-.06.02-.1-.06-.22.04-.14.16-.12.24-.12.24-.16.24-.6.66-.46.22-.38.3-.26.06-.08.04-.06.04-.06.06-.08.02-.1-.02-.24.04-.12.12-.14.12.06.12-.04.2-.16.08-.04.08-.02h0ZM103.86,164.37l-.12.12-.12.08.02-.08.1-.24.06-.04.12-.06.06-.1.04-.12.1-.1v.06l-.02.04-.02.02-.02.02.04.04v.04l-.24.32h0ZM86.73,148.61v.16h-.08l-.06-.04h-.08l-.08.04-.08.08-.06-.18-.12-.12-.12-.06-.06-.06-.04-.42.04-.14.44.18.12.12.08.14.06.14.04.16h0ZM86.51,147.04l-.2.18-.22.16-.06.04-.14-.08-.04-.12.04-.16.02-.1.04.02.18-.1.06-.04.02-.04.04-.04.1-.02.16.1.04.1-.04.1ZM74.66,192.92l-.14.1-.16-.02-.28-.08-.34-.02-.1-.08-.08-.18-.02-.14.04-.1.12-.08.16-.06.2.04.12-.02.12-.06.14-.02.14.02.1.1.12.24-.08.08-.18-.08v.1l.12.26h0ZM59.01,181.53l.1.14-.04.08-.12.06-.06.06.02.16.12.4.02.22-.02.06-.04.1-.02.02v.22l.08.08v.04l-.04.02-.02.02-.08.08-.02.02-.04.12-.12.14-.16.12-.18.04.1.18-.08.06-.18-.02-.14-.08.06-.16-.06-.18-.22-.34-.22-.54v-.06l.06-1.47.12.08.04.1v.12l.06.06h.16l.06-.12.04-.16.08-.08.48-.1.2.02.1.12-.06.22v.08l.02.06h0ZM58.22,180.75l-.14-.08.34-.26.18-.08.14.12.12.34-.02.08-.08.04-.1.02-.12.02-.1.1-.1-.1-.06-.1-.06-.1h0ZM60.34,180.1l-.22.06-.24-.08-.1-.14.02-.1.14.02.24.02.16.1v.12h0ZM61.89,179.14l.12.28-.1.12-.08.1-.12.06-.14-.08-.32.16-.12-.24-.02-.38-.06-.28.06-.14.04-.32.04-.14.1.06h.1l.08-.04.1-.08v.06h.06l.32.22v.32l-.06.32h0ZM60.98,178.37l-.02.14-.22.2-.3.2-.26.02-.1-.28.1-.12.56-.48-.02.14-.02.04-.02.04.06.1.12-.08h.08l.04.08h0ZM90.64,153.73l-.22.1v.06l.04.1-.1.1-.18.04-.18-.08-.02.06-.02.06-.02.04-.02.06-.26-.36-.12-.08.04.2.06.22.04.22-.06.18-.1.02-.12-.02h-.1l-.06.1-.04.06-.08.04-.2.02-.16.04-.14.08-.16.04-.2-.12-.08-.18-.04-.22v-.46l-.12.04-.1-.02-.04-.06.02-.04.44-.34.1-.12.26-.46.08-.12.06-.04.08-.04.1.02.34.2.3.14.34.1.24.08.28.16.12.18h0ZM88.95,144.48l-.22.3-.12-.1-.02-.14.06-.14.08-.16h-.14l-.18-.06h-.08l-.08.14-.08.1-.12.04v-.04l-.06-.1-.1-.1-.08-.04-.12-.06-.06-.2-.16-.04.14-.2.14.1.14.2.16.12.12-.08.04-.2v-.32l.08.1.12.2.1.08.06-.12.06-.02.06.04.04.1.08-.18.04-.16-.04-.12-.16-.08.12-.08.12-.04.1-.02.1.08.1.38-.06.44-.18.38h0ZM91.43,139.46l-.08.02-.28.04-.02.1.04.16-.14.16v.06l.04.02.12.06v-.08l.1.04.08.06.06.06.04.08-.2.24-.08.06.14.22-.2.36-.36.28-.32.02-.18.18-.14-.18-.04-.32.06-.26.14.1.04.04.04.08h.08l-.02-.16-.02-.06-.04-.08.14-.14.12-.16.04-.16-.08-.14-.08.06h-.06l-.08-.06-.06.24-.14.1-.16-.02-.16-.1-.08-.14-.1-.3-.1-.08.06-.04.08-.08.08-.04-.12-.18-.28-.26-.12-.16-.06-.16-.16-.52.1.02.04.04.06.02h.08v.02l.02.02.06.04h.04l.04-.02v-.12l-.04-.02.02-.08.12-.16.16-.06.1.24.38.22-.04.12.18.04h.48l.1.02v.04l-.06.06-.24.06.06.08.12.06.06.04.3.24.22.06.1.06h0ZM94.19,137.91l-.14.06-.14.04-.08-.02-.04-.06-.1-.04-.18-.02-.14.06-.12.08-.14.04-.14-.06-.12-.1-.12-.06-.14.06-.02-.18-.14-.04-.18-.02-.16-.06-.1.08.08.14v.12l-.04.12-.04.14-.08-.04h-.06l-.02.04-.04.08h-.08l-.16-.3-.12-.08-.46.08-.18-.06-.22-.12-.18-.16-.14-.32-.32-.36-.06-.22v-.16l-.02-.14-.06-.1-.1-.12-.08-.12-.02-.16-.04-.16-.12-.14-.12.1-.12.12-.08.16-.06.16-.12-.08.02-.08.1-.1.08-.12.02-.14v-.12l-.02-.16.06-.22.14-.08.2-.06.2-.12-.28-.02-.1.02-.08.08-.02-.44.08-.16h.24l.2.08.08.16v.18l.02.1.16.04.4.06.18.04.18.1.3.24.24.28.08.06.1.04h.18l.1.04-.12.02-.08.06-.04.1.02.12h.24l.58.44.26.16.04-.12.06-.06.1-.02.1.04v-1.03h.08l.14.2.08.18.02.16-.02.3.08.12.14-.04h.16l.06.18.04-.02h.02l.02-.06.32.32.14.18.06.14-.04.16-.08.06-.08.02-.1.1-.06.16.06.04.08-.02.06-.1h.06v.04l.02.04.08-.08.06.14-.04.1-.12.08h0ZM102.27,150.89l-.26.06-.3-.02-.18-.16.08-.34.08-.06.36-.22.2-.2.08-.02.02.16v.24l-.14.36.06.2h0ZM93.42,138.76l-.04.08.02.08.04.06.02.06-.08.28v.12l.02.12.12.2.02.1-.12.08-.14-.22-.18-.54-.38-.69.12-.02.48-.2h.1l.1.02.06.08.02.1v.22l-.02.02-.1.02-.06.02h0ZM90.1,172.18v.04h-.02l.02-.04ZM90.22,172.18h-.02l-.02-.04.04.02v.02h0ZM90.14,172.14v-.04h.02v.02l-.02.02ZM90.18,172.08l-.02-.02h.02v.02ZM100.66,121.22l.08-.06.06-.2.14.04h.06l.08-.04.02.04.06.04-.04.1-.08.06-.06.06h-.12l.08.1.1.12.12.12.12.04.1.1.24.42.16.1.73-.04.18.12-.04.36h.06l.02-.06.04-.18.02-.06.04-.06.02-.02.08-.06.12-.06.12-.04.14-.08.06-.14h.08l.22.42,1.25,1.03.46.73.18.1.22.04.18.1.12.16.02.24-.02.1-.06.12-.04.12.04.12.12.08.14-.02.12-.04.1-.02h.26l.24.06.18.1.1.22-.04.22-.14.16-.38.24-.12.2-.08.24v.26l.1.69v.18l-.1.44.02.16h-.06l.06.3.02.69.1.26.3.38.04.08v.12l.04.18.06.18.1.18.02.08-.02.28-.04.02h-.04l-.06.04-.42.62-.12.12-.28.16-.08.04-.06-.02h-.06l-.02.1.02.18.02.08.04.08-.08.08-.06-.08-.04.08-.02.04.02.08.04.1-.2.12.02.32.12.32.2.22v.08l-.42-.14-.22.02-.02.2.06.06.02.1-.02.1-.06.1.1.06.04.06.02.08v.1l-.32-.2-.12-.18-.16.1-.26.22-.14.02-.12.08-.2.2-.28.54-.02.06h-.16l-.24-.24-.16-.06h-.66l-.2-.12-.14-.24-.08-.32.1-.3.06.18.1.1.12.02.16-.08-.08-.04-.08.02-.06.02-.08-.18v-.04l-.22-.16-.08.02v.22l-.16-.1-.22-.18-.2-.22-.14-.24-.26-.26-.1-.02-.06-.08-.44-.79-.14-.08-.1-.12.02-.26.1-.46v-.22l-.06-.2-.1-.2-.3-.34-.18-.38-.16-.16-.24-.1h-.2l-.16-.06-.06-.26v-.12l-.06-.2-.02-.14-.02-.12-.18-.28v-.1l.06-.08.04-.06.04-.06v-.1l-.02-.54-.1-.34-.1-.6-.18-.34-.48-.66-.34-.71-.24-.3-.52-.18-.2-.24-.18-.08-.36.04-.12-.06.12-.2-.28-.26-.2-.32-.14-.36-.08-.77-.08-.18-.14-.08h-.08l-.18.04-.08.04-.08.06-.04.06-.04.06-.06.04-.2.18-.14.04-.16-.08-.14-.1-.12-.16-.08-.18-.02-.2.04-.24.12-.24.16-.18.22-.14.24-.1h.24l.75.16.64.04.14-.02.12-.04h.1l.22.14.12.02.2.04h.42l.24.04.14.12.18-.1.14.06.2.18.18.02.16-.04.32-.12.97-.22.04-.04.24-.12.14.12.1-.02h0ZM93.59,119.05l.02.12-.18.14-.04.06-.06-.1-.08-.12-.08-.12-.1-.04-.16-.04-.06-.08-.04-.1-.08-.08-.1-.08-.12-.04-.12-.04h-.14l-.06-.04-.12-.14-.36-.12-.16-.2-.1-.26-.04-.26.02-.12.04-.08.08-.06h.12l.16.06.26.12.22.16.06.12.16-.06.2.06.2.1.18.12.36.56-.06.14-.1.08-.04.1.08.14.1.04.08.02.06.04h0ZM102.71,136.16l-.1.02-.1-.06-.1-.08-.1-.04-.08-.1-.04-.16-.1-.16-.2-.1-.12-.34.22-.28.3.12.1.24.08.36.04.1.06.04.02.02.12.24.04.12-.04.06h0ZM113.27,122.31l.2.14.06.1-.1.34-.62.64-.24.32.1.22-.1.2-.34.28-.16.04-.18-.12-.14-.16-.1-.1-.12-.04-.36-.32-.1-.04h-.18l-.08-.04-.12-.08-.18-.3-.32-.34-.04-.12.04-.26v-.08l-.04-.16v-.58l.04-.16.06-.1.3-.52.02-.1.02-.32.04-.06.16-.04.14.16.24.34.04-.06.12-.12.06-.06.16.18.24.06.24-.08.08-.22.14.08.1.1.04.12-.04.16.16-.06.12.06.04.1-.1.12.04.04.12.08.06.02.16-.1.22.06.2.16.08.2-.04.04-.08.02h-.1v.28l.04.08h0ZM119.56,133.62l-.18.79-.12.14-.18.14-.18.12-.14.06-.06-.04-.16-.22-.1-.06-.22-.06-.1-.08-.26-.44-.18-.22-.26-.08-.24-.04-.2-.08-.16-.16-.1-.18v-.4l.24-.22.4-.1h1.21l.4.08.14.06.06.08.06.22.06.14.08.14.2.26v.16ZM115.35,131.56l.14.42v.38l-.34.3-.16-.2-.1-.2-.04-.2.02-.24-.02-.04-.02-.04-.04-.08v-.06l.04-.06.08-.02.04-.06.06-.24.06-.08.08-.06v.14l.2.34h0ZM113.72,130.63l.1.1v.18l-.04.06-.18-.04-.06.06v.1l.06.62-.06.34-.24.77-.08.81-.2.79-.32.81-.08.12-.08.2.12.14.14.14v.16l-.14-.14-.06.08-.2.18-.04.08v.56h-.08l-.22-.26-.06-.16.06-.18-.28-.02-.06-.18.04-.56.1.26.16.06.12-.12.06-.24-.02-.14-.1-.04-.12-.04-.12-.04-.44-.44-.1-.08.04-.4.1-.44.14-.22.34-.14.16-.32.04-.4v-.38l-.06-.64.04-.24.26-.2.6-.18.32-.16.1-.26.34.08h0ZM109.12,127.81l-.04.02.02.04.04.04-.06.04h-.06l-.06-.06-.04.02-.04-.02-.08-.1-.06-.06-.02-.04-.02-.12.08-.14.12-.02.14.02h.06l.08.08.06.12-.04.12-.04.04-.04.02h0Z"/>
    <path id="PH40" class="cls-2" d="M100.9,110.22l.14.2.02.3.14.1.26.44.02.04.04.12-.04.3.14-.04.12-.1.16-.1.04.04.04-.02.06-.06.83-.04-.08-.73-.1-.81-.08-.26.06-.08-.06-.1.06-.1.02-.22-.08-.16.04-.14.1-.08.16.04.06-.24-.02-.1-.26-.08.04-.28.18-.34-.1-.08v-.14l.06-.04.12-.18.14-.18.22-.28.2-.3.4-.08.26-.16.2-.26.24-.2h.36l-.06-1.21-.08-.38.08.02.06.02h.16l-.02-.3.2-.26.22-.26.1-.28v-.1l-.08-.26-.02.02-.04.02h-.06v-.04l.02-.08.06-.02.04-.02h.02l.06-.2.06-.14.12-.08.18.02h.1l.24.12.14.16.06.2.22,1.13.08.12.12.12.36.58.06.18.04.3.12.3.18.26.18.26-.06.02-.1.1-.06.02.44.54.08.1.08.1.69.54.12.14.02.12-.2.06h-.4l-.24.06-.2.08-.16.14-.08.18v.48l.04.2.38,1.33.06.4.12.44.08.18.12.18.46.42.1.2.02.16-.04.38.04.08.2.18.04.1-.02.18-.04.16-.1.14-.12.1v.08l.14.12.38.56.73.52.75.77.2.16,1.65.64,1.55.34.02-.28-.12-.22-.42-.4.2-.06.99.26.06-.02v-.14l-.04-.2.04-.04.16-.04v-.06l-.26-.08-.4-.5-.18-.12-.3-.1-.24-.24-.16-.32-.08-.32.1.08.04.06.02.1h.06v-.26l.12-.16.4-.2.14.06.02-.18v-.26l.06-.16.12.04.04.22-.04.26-.04.18.08.1.02.12v.14l.04.16-.02.04.02.06.06.06h.06l.04-.04.04-.06.02-.06.06.12.02.14-.02.28.12-.04-.02.16.22.04.3-.12.22-.14.28-.28.18-.14.16-.1.26-.06.22.02,3.63,1.75-.66.16-1.51.18-.58.3-.02.04-.02-.06-.14-.16-.04-.06-.04-.04-.22.3-.6-.04-.26-.08-.2-.18-.04.14.08.18.14.14.14.06.04.1.52.75.12.2-.02.14-.06.16.02.24.08.4-.22-.06-.06.2.06.5.06.28.18.24.38.38.79.48.16.16-.04.18-.26-.12-.44-.36.06.18.28.44.46.56.12.2.1.22.1.44.06.42v.44l.02.14.04.08.04.06.04.08.02.22v.14l-.02.08-.06.04-.1.04-.1.04-.04.08-.1.1-.26.16-.26.1-.18.04-.18-.1-.73-.62.04-.22.1-.38.02-.18-.2-.64-1.07-1.41-.02-.08-.02-.14-.04-.08-.2-.2-.06-.1-.3-.12-.08-.14-.16-.2h-.66l.02-.16-.2-.06-.36-.02-.14-.1-.06-.1-.04-.18-.06-.1-.08-.1-.58-.95-.28-.32-.34-.26-.08.2-.16-.04-.18-.16-.14-.08-.2.02-.04-.02-.38-.36-.14-.08-.14-.04-.12-.02-.1-.04-.24-.2-.12-.08-.12-.06-.34-.1-.16-.16-.12-.2-.16-.18h-.08l-.42-.14-.16-.08-.06.14-.2.12-.04.16-.08.06-.5.12-.06.06-.16.18h-.1l-.18-.06-.06.02-.14.1-.3.1-.2.14-.08.04-.08.02-.18.02h-.04l-.12.08-.32.36-.22.24.08.79-.06.28h.1l.08.02.12.04-.32.34-.04.08-.44-.1-.16-.02-.2.12-.62.46-.2.22-.16-.04-.16-.1-.04-.04-.3-.12-.14-.04h-.18l-.1-.02-.1-.08-.1-.04-.18-.02-.36.08-.16.08-.14.08-.12-.04-.24-.04-.1-.08-.04-.1.02-.04.08-.08.02-.12.04-.26.04-.2v-.18l-.14-.4-.04-.04-.22-.14-.14-.06-.12-.04-.12.04-.85.97-.08.06-.08-.06-.06-.12-.02-.14.06-.06.08-.06.06-.12.04-.12.04-.06.14-.02.08-.06.02-.08v-.16l-.16-.18-.04-.04v-.14l.04-.22.02-.14v-.18l-.04-.18-.06-.16-.12-.12-.2-.06-.97-.12-.44-.12h-.24l-.2.08-.08.14.04.2.14.22.1.24-.22.04-.44-.1-.1.16.04.2.1.24.04.2-.06.14-.14-.1-.24-.3-.08-.4-.02-.93-.18-.42.16-.04.14-.1.06-.12-.04-.04-.12-.08-.04-.16.06-.66-.04-.3-.12-.22-.3-.1v-.08l.18-.08.02-.1-.1-.1-.16-.1h.1l.06-.02.14-.06v-.06l-.16-.14.1-.2.18-.2.08-.18.08-.18.16-.08.44-.08.14-.06.18-.1.12-.12.06-.14.06-.06.26-.12.08-.04.24-.38.95-.93.08-.04h.36l.08-.02.18-.2.18-.14h0ZM113.84,115.66l-.22-.14-.4-.34-.73-.46-.42-.4-.12-.06-.18-.1-.2-.26-.18-.28-.06-.2.02-.14.08-.08.12-.04.14.04.06.04.04.04.1.12,1.39,1.21.48.34.24.2.12.26-.08.26h-.2ZM114.74,107.48l-.85-.64-.3-.04-.14-.06-.08-.08-.04-.14-.06-.12v-.06l.18.04.02-.04.12-.1.04.14.08.06h.12l.14-.06h.36l-.08.08-.04.08v.12l.04.12.1.08.12.02.2-.04.14.1.08.24v.24l-.16.1v-.04h0ZM112.47,104.72l-.12-.08-.16.04-.1.12-.02.12.04.06.08-.06.1.28-.02.12-.1.08-.34.22-.04.04.02.06.02.4.02.1.06.14.2-.02.12.18.08.28.1.71-.02.16-.2.54-.22.18-.24.14-.22.06-.26-.1-.08-.26v-.28l.08-.28.2-.04-.02-.44-.16-.5-.22-.24-.16-.04-.04-.14.02-.38-.04-.12-.24-.36-.08-.1-.18-.06h-.1l-.04-.06.1-.75.06-.26.12-.1.32.2.22.02.08-.18.08-.1.2-.02.44.06.16.1.1-.06.12.06.08.12-.08.18.26.02.2.1.12.18-.06.24-.24-.28h0ZM115.95,108.17l-.36-.04-.04-.18.28-.16.24-.08.18-.1.16-.04.16.08.08.06.02.18-.24.2-.24.06-.24.02h0ZM101.89,120.54l.08.04.08-.02.12-.06.08.02.06.08.04.28-.06.08-.18-.06-.3-.28v-.08h.08ZM100.5,119.85l-.14.02-.36-.08-.38-.22-.04-.06-.1-.26-.02-.04.02-.02.12.14.08.06.38.14h.3l.18.02.1.06v.16l-.14.08h0Z"/>
    <path id="PH08" class="cls-2" d="M147.63,160.84l-.12-.02-.08-.06-.02-.08-.02-.08-.04-.08-.24-.3-.42-.69-.36-.22-.2-.16-.08-.18-.14-.46v-.24l.14-.16h.12l.1.06.18.16.44.18.14.1.1.18.16.75.1.14.14.16.14.18.06.24.12.36-.02.04-.08.04-.06.08-.06.06h0ZM146.54,154.09l.02.12.1.26.02.14-.02.4.02.16.08.16.14.22.14.12.08-.12h.08l.14.16.08.16.04.2.04.3.02.24-.04.24-.14.18-.32.08-.77-.3-.2.04-.06.22.02.32.08.3.08.18-.36-.14-.32-.34-.2-.42-.08-.34-.16-.22-.02-.04-.04-.06v-.4l-.12-.12-.2-.08-.22.02-.12.18.14.32.08,1.49.26.71.06.44.14.5-.02.22-.1.1-.18-.08-.56-.44-.04-.06-.06-.14-.12-.06-.16-.04-.1-.02-.18-.18-.08-.14-.12-.1-.24-.04h-.48l-.22-.04-.16-.1-.16-.36v-.02l.08-.42.14-.44.1-.4-.02-.26-.08-.3-.16-.24-.22-.1-.12-.12-.04-.26.02-.3.08-.5.02-.1.06-.08.14-.18.02-.06.02-.5.04-.22.28-.69.02-.2v-.5l-.24-1.07-.04-.1-.38-.34-.06-.08-.06-.2-.1-.2-.28-.38-.46-.34-.06-.06-.08-.18-.16-.1-.2-.02-.22.04-.22.06-.14.12-.02.18.12.2.06.2-.1.24-.16.22-.12.12-.14.04h-.08l-.4-.3-.02-.04-.18.06-.06-.04-.04-.3-.06-.04-.12.02h-.14l-.12.04-.06-.06.02-.2.04-.14.14-.2.04-.18-.04-.22-.06-.08-.1-.08-.1-.16-.02-.18.06-.16.08-.12.06-.18.1-.14.02-.08-.02-.08-.06-.14-.06-.69v-1.01l-.2.02-.18-.12-.16-.18-.06-.2.04-.1.16-.12.02-.1-.16-.04-.14-.06-.08-.08.16-.08-.04-.08-.12-.12-.06-.12-.02-.18-.16-.24-.16-.66.04-.16.04-.02.24-.12.02-.02.12.06.28.38.64.54.18.22.4.69.04-.46.06-.22.16.04.32.24.12.14.26.69.26.3.38.16.52.02.38-.1.34-.18.54-.48.4-.58.14-.08.1.02.22.1.12.02.04-.02v-.1l.04-.02.06.02.04.04.02.06-.02.02.28-.02.1.02.1.06.24.2.06.04.08.12-.02.26-.06.26-.1.16-.02.14.02.12.04.06.02.02.02.12.02.04.06.06.04.02.02.02.06.02.14.06h.08l.06.04.04.28h.06l.04-.1.02-.12h.08l.02.34-.02.1-.02.1-.1.18-.02.06.02.14.1.2.02.1-.02.36.16,1.03-.02.46-.42,1.35-.08.52.08.46.14.14.66.3.26.08.08.04.04.1.08.32.4.48.02.02.06.1.2.08.02.22-.12.56h0ZM136.87,153.14l.12-.14.08-.2.02-.14.04-.18.06-.16.08-.12.16-.08h.14l.16.08.1.14.06.12.04.14.02.28-.12.14-.85.42-.18-.14.06-.16h0ZM138.44,152.09h.34l.4.22.18.3-.12.26-.5.12-.58-.2v-.38l.28-.32h0ZM153.17,152.24l-.2.02-.12-.02-.08-.06-.12-.12-.1-.08-.4-.18-.2-.14-.06-.28.08-.28.24-.14.24.1.14.54.18.2.16.02.34-.02.16.06.1.16-.06.12-.14.08-.16.02h0ZM148.37,134.5v.14l-.06.06.12.06.12-.04.2-.16-.06.2.1.04.42-.02.2.1.36.3.16-.02.06.12.24.3.1.3v.12l-.18-.1-.08.08-.26.04-.1.04.1.04.08.04.06.06.06.08-.3.08-.14.04-.08.1-.02.22.12.04.34-.02-.02.04-.02.08-.02.02.08.08.14.14.1.16v.12l-.36.3-.1.12-.12.22-.2.26-.06.18-.02.22.02.24.02.06.12.32-.02.34.02.1.06.08.28.26.04.1-.04.1-.08.06-.28-.1-.1.18.02.2.22-.08h.12l.1.22.1.4-.02.28-.1.06-.12.02-.12.16.14.06-.04.12-.08.12-.02.16.04.1.06.02.08.02.08.04.04.08v.26l.04.18.04.1.24.34.08.18v.16l-.12.18h.1l.04.02h.08l.08-.02.06.26.04.12.08.06.12.04.2.16.12.02.02.06.12.14.14.12.06.02v.28l-.04.18-.08.14-.66.5-.12.22v.4l.18.2.3.04.34-.12-.16-.2v-.16l.14-.04.5.36.2.12.14.16.06.32.18.34.34.36.2.36-.2.32-.1-.08-.24-.14-.1-.08-.1-.36-.02-.02-.02-.04v-.26l-.02-.04-.06-.02-.16-.08-.04-.06-.16-.12-.16-.08-.08.08-.36.22-.1.04-.14-.04-.04-.12-.02-.12-.08-.1-.12-.04-.06.02-.08.06-.12.04-.04.08-.04.38-.04.14-.3-.28-.18-.12-.14-.02-.2.24-.12.1-.16.08-.02-.18-.08-.1-.1-.02-.1.14-.26-.22-.1-.08-.4-.06-.06-.04-.04-.08-.12.02-.32.12-.06.08-.04.1-.14.2-.02.08-.06.02-.06-.02-.08-.04-.08-.08-.08-.14-.04-.16-.06-.58-.12-.46-.28-.42-.42-.18-.48-.04-.5.04-.44-.08-.1-.3.1-.91v-.16l.02-.06.06-.08-.08-.04-.22-.18-.08-.04h-.14l-.08-.04-.14-.1-.14-.12-.08-.14-.08-.16-.16.34-.08.06-.2-.02-.14-.06-.12-.1-.1-.12-.08-.18.16-.08.1-.1.08-.1.1-.08.18-.06.14-.02.04-.06-.14-.16h.62l.14-.08.18-.18.16-.2.08-.14v-.18l-.06-.16-.04-.16.06-.14.24-.26.16-.24.06.06.18.1-.02-.26-.12-.22-.18-.14-.24-.06-.18.06-.44.26-.2.06-.38-.22-.62-.93-.42-.14v-.08h.14l-.1-.04-.04-.02.14-.3.04.02.06.02.06.04.06.06-.04-.22-.16-.12h-.16l-.18.2-.18-.04-.1-.1.16-.1-.06-.1-.06-.04h-.08l-.1.08-.02-.3-.04-.16-.04-.12-.54-.56-.42-.18-.42-.1-.34.04-.3-.16-.52-.34-.5-.62-.22-.22.02-.02.04-.06-.26-.14-.18-.3-.22-.77-.3-1.05-.71-1.63-.02-.16.02-.12.08-.14.1-.1.12-.04.08.04.5.38.04.02h.12l.28-.12.08-.02.06.02.28.12.16.06h.69l.04.02.12.08.02.02.04.06.04-.02.06-.04.04-.02.26.02.22.04.91.08,2.04-.16.1-.02.1-.08.1-.16-.06-.1-.1-.1-.04-.12v-.08l.2.06.14.12.1.14.1.06.16-.08.18-.1.16-.04.06.18.1-.02.24.1.18.12.04.04.06.02.06.04.06.04h.14l.08-.04.14-.08.1-.08.06-.08.02-.22.1-.06.32.1.1-.02.1-.04.1-.02.1.04.24.26.54.34.26.22.02.2.12.12.22.14.1.12.12.28.08.1.16.14-.2.12-.18.24-.06.28.22.2-.06.04-.04.06-.04.14v.06l.32-.2.12-.04-.02.1h0ZM140.39,143.45l-.08.12-.18.06h-.64l-.26-.08h-.22l-.04.1-.04.06h-.08l-.06-.04-.04-.06-.02-.08-.02-.04-.36-.38-.14-.18-.28-.77-.06-.24-.04-.1-.24-.28-.06-.1.2.02.54-.16.14-.02.4.04.3-.04.1.02.18.08.2.12.16.16.12.4.26.54.08.12.24.12.04.22-.1.38h0ZM142.69,142.18l.12.06.18.04-.04.1-.02.12-.02.26-.04.12-.06.1-.08.04-.26-.3.02-.04-.02-.1-.06-.06-.16.14-.14-.38.06.02.08.04-.02-.18-.1-.16-.14-.12-.14-.06-.1-.04-.06-.12-.02-.14-.04-.1-.08-.12v-.08l.12-.22h.06l.02.02.12.12.36.22.04.04.04.04.02.06.02.08.02.06.16.08.04.1-.02.16.06.12.08.08h0ZM136.22,137.2l-.22.04-.12.08-.22.16-.14.02-.16-.08-.04-.1.08-.12.12-.12.18-.06h.26l.24.08.02.1h0ZM135.36,133.33l-.14-.26-.02-.24-.02-.12.1.02.2.14.16.26.06.28-.14.1-.2-.18Z"/>
    <path id="PH05" class="cls-2" d="M118.17,116.49l.02-.04.58-.3,1.51-.18.66-.16-3.63-1.75-.22-.02-.26.06-.16.1-.18.14-.28.28-.22.14-.3.12-.22-.04.02-.16.08-.06.18-.14.12-.2.02-.24-.04-.08-.14-.22-.04-.08.04-.14.08-.08h.06l.04.14h.08l.02-.1-.02-.1-.02-.06-.06-.04h.2l.12-.08v-.12l-.14-.14.02-.1.16-.34.08-.14.06.16.1-.06.1-.14.04-.18.16.08.14-.08.14-.12.14-.12h.14l.12.06.26.18-.04-.06-.12-.18.26-.02.5.22.28.04-.02.16.06.1.1.02.08-.12.04.16.1.12h.1l.06-.14.3.04.14.04-.18-.28-.02-.26.08-.12.2.14.06-.1.08.2.1.14.16.02.18-.2.06.08.04.04.08.02.16.02.02.04-.02.04.02.06.18.2.08.02.16.02.3.06.22.14.32.4.02.06-.02.08v.06l.04.02.14.02.06.02.06.04.24.38.12.1.4.44.1.14.1-.06.12.04.1.12.06.14-.04.16-.08.14-.06.16.02.22.22.22.28.16h.02l.04.16-.04.5.08.3v.1l-.06.1-.08.02-.08.02-.08.08-.04.12-.08.44-.02.12.02.4.18.2.24.16.22.22h.08l.22-.12h.26l.58.04.1-.02.34-.14.12-.06.36-.44.08-.12.02-.08.04-.08.02-.06-.08-.14-.12-.4-.18-.26v-.16l.36-.26.04-.04.08-.06.06-.14.04-.18.02-.14-.12.1-.14.34-.08.08h-.16l-.1-.02-.5-.3-.12-.14-.04-.18.1-.1.18-.06.1-.08-.16-.1.22-.08.02-.14-.1-.28.1-.06.22.08.34.18v-.08l-.04-.04-.1-.12.3.02.08-.02-.02-.08-.08-.18.06-.04.14.06.08.16.1.4-.18.04-.04.12.04.14.08.02.18-.18.1-.06.12-.02-.06.08-.1.22.12-.04.04-.02.06.06-.04.2.2.3-.08.18.08.1.04.12.02.12v.12h.08l.06-.14.08-.1.08-.14v-.22l.22.06.14.06.08.12.08.22.5-.06.79.32.75.12.32-.54.24.42.34.36.42.28.77.34.04.04v.04l.04.02.14.04.26.02.12.04.06.06.16.32.18.16.04.12-.08.16-.18-.14-.06-.08-.06-.08h-.06l-.02.04-.06.1-.14-.06-.2-.06-.36-.02-.08.1-.16.2-.2.2-.22.1-.2-.04-.38-.2-.58-.1h-.24l-.1.08-.1.08-.22-.08-.26-.12-.16-.08-.18.08-.12.14-.34.93-.02.22.1.02.04.04-.04.06-.02.06v.18l.02.12.08.02.08-.02.1-.1.36.46.04.08.08.08.66.34.14.16.28.48.04.04.14.08.04.06v.22l.06.3.12.26.18.18.18.06.2.1.12.24.16.48.04-.18.12.04.12.16.08.14-.71-.04-.24.1-.08.28-.04.18-.04.16-.02.14.02.16.2.32-.04.14-.22.06v.1l.04.06v.06l-.04.1.22.12.08.02h.14l.1-.04.16-.14.06-.04.4-.52.06-.1.04-.1.08-.08.12-.02.12.02.12.16.1.04h.1l.08.04.04.04h.02v.1l.08.02.38.1.14.08.16.12.14.14.06.14.48.42.12.08.1-.1.22-.46.04-.16.12-.04.24.06.26.1.12.08.04.18-.04.22-.08.12-.14-.08-.12.16-.08.14-.1.3-.18.4-.04.1.04.18.14.24.1.71.02.2-.16,1.33-.06.16-.3.2-.08.16.04.18.04.12v.08l-.14.12.04.06.1.24-.14.04-.16.12-.14.04-.14.02-.34-.02-.28-.1-.26-.24-.3-.46.02-.12-.04-.02-.06.02-.1.04-.16-.2-.22-.1-.1-.16-.08-.22-.22-.4.02-.22.04-.22.02-.22-.08-.28-.12-.1-.18-.08-.22-.14h.28l.2-.1.16-.14.1-.22.12.06.18.18.08.06.1.04h.06l.06-.02.1-.02.14-.02.04-.1v-.1l.04-.1.12-.06.1.02.12.04.06.02.18-.08.16-.14.14-.2.04-.22-.1-.26-.22-.08-.48.08-.2-.02-.32-.16-.18-.04-.14.1-.08.2-.06.22-.06.16-.24.28-.18.12-.26.06-.1.06h-.06l-.06-.02-.1-.1-.06-.02-.06.04-.12.18-.08.08h-.04l-.06.06h-.04l-.06-.14-.1-.16.12-.04.1-.08v-.06l-.1-.04-.28.02-.06.02.04.08.04.08v.1l-.22-.2.1-.24.18-.24-.06-.04-.08.04h-.1l-.14.04-.06.08-.02.1-.04.08-.08.1v.06h-.18l-.18-.04-.12-.04-.08-.04-.28-.34-.14-.12-.2-.1-.12-.04-.08-.02-.08-.04-.12-.1-.06-.1-.1-.12-.2-.12-.2-.36-.1-.08-.24-.04-.18-.04h-.18l-.24.08-.34.2-.22.06-.1-.08-.06-.18-.08-.2-.04-.18.1-.14-.16-.4.28-.87-.04-.42-.1-.1-.08-.1-.4-.28-.16-.2-.04-.1-.06-.16-.04-.1-.3-.32.06-.3-.1-.36-.2-.32-.24-.14-.3-.08-.56-.36-.32-.08-.18-.04-.24-.1-.16-.02-.1-.04-.26-.26-.69-.48-.14-.06-.14-.08-.32-.38-.16-.14.52-.46-.52-.58-.26-.22-.34-.18v.08l-.06-.08.06-.06.14-.02-.04-.1-.16-.12-.14-.08-.42-.08-.1-.06-.14.12h-.12l-.14-.06-.12-.14.02-.06.08-.04.06-.08-.04-.08-.34-.34-.12-.08-.14-.04-.14-.04-.04-.06-.04-.16-.06-.08-.12.06-.02-.04h0ZM129.59,116.71l-.04-.02-.02-.02h-.08l-.02-.08-.02-.12-.04-.08v-.06l.08-.14.02-.02.02.06.02.04h.04l.04.02.04.04v-.1l.06-.04h.06l.06-.04h.04l.06.04.02.02.02.06h.04l-.02-.08v-.04l-.08-.1-.02.02h-.04l-.02-.06.02-.06h.04l.1.06.08.08.06.04.04.02.06.12-.06.14-.52.34-.04-.04h0ZM134.79,124.71l-.3-.12-.04-.08.2-.06.32-.12.1-.06.16-.02.44.12.2.12.12.18v.2l-.14.06-.36-.08-.16-.06-.12-.04h-.24l-.18-.04h0ZM134.41,124.13l-.06.1-.1.1-.08.02-.16.04-.08-.02-.2-.06-.24-.08h-.2l-.2-.08-.18-.16-.08-.14v-.1l-.02-.06v-.04h.02v-.02l.52.04.26.12.08-.02.08-.04.14.02h.02v.02l.1.08.06.04.06-.02v-.06l.02-.04h.08l.1.02.14.04.16.06.02.04v.04l-.14.06-.06.04-.06.06h0ZM132.68,124.21l-.18.1h-.12l-.1-.18-.06-.06-.14-.22-.02-.12.06-.2.02-.2-.04-.14-.12-.16.04-.04.1-.06h.1l.44.16.06.04.08.04.1.02v.12l-.28.3-.06.2.06.18.08.12-.02.1h0ZM131.45,122.41l.18.08.18.14.06.08h.18l.02.06-.12.12-.12.04-.24-.14-.28-.3-.04-.12.18.04ZM134.47,140.51l.06.22-.04.18-.16.04-.14-.2-.22-.44-.14-.14-.36-.32-.3-.12-.24-.26-.36-.12-.16-.14-.22-.32-.14.08-.18-.04-.4-.18-.26.1-.22-.12-.2-.2-.14-.1.06-.14.06-.1.1-.04h.16l-.16-.3-.06.1v.04h-.08l-.08-.14-.14-.14-.14-.12-.28-.12-.08-.16.02-.14.18-.02-.22-.06-.22.02-.16-.04-.12-.44-.12-.18-.34-.34-.14-.24-.08-.06-.3-.14-.1-.04-.18-.08-.26.02-.24.08-.16.08-.12.14-.34.48-.08.28-.1.14-.1.12-.1.04-.12.02-.06.04-.08.16-.6.71-.91.85-.24.14-.1-.12.02-.24.06-.26.08-.22.1-.08.12-.04.06-.06v-.24l.02-.14.06-.12.08-.1.06-.12-.02-.42.06-.2.18.08.06-.14.08-.12.1-.08.16-.02.08-.06-.04-.12-.14-.2.14-.1.14-.06.1-.1-.02-.2-.36-.02-.24.02-.2.08v-.08l-.02-.32.02-.04.02-.02.3-.4.04-.16.04-.32.16-.54.02-.26-.02-.18-.06-.08-.1-.08-.14-.12-.12-1.27.04-.14.08-.02.1.02.1.08.16.06.32.06.16.04.1.08.08.08.1.06.1.02-.02.02.02.04-.2-.04.02.18.18.38-.06.1-.14.08-.12.14-.06.18.06.14.12-.08.2-.26h.12l.06-.02.02-.06-.02-.1.02-.04h-.02l.06-.14.08-.12h.04l.08-.08.18-.02.2.04.16.06.34.34.16.14.2.08h.36l.06.06.12.18.08.08.1.22.14.2.16.1v.06l-.12.02-.08.06-.04.1.02.14.36-.2.16-.02.08.18.04.06.1.02h.12l.1.02.12.08.08.08.08.1.69,1.19.28.3-.06-.5.08-.16.24.16.34.34.14-.02.12-.08.1-.02.08.12v-.08l.1.22.56.93.06.04.16.06.08.04.04.1.1.36.06.1.44.58.12.18.04.18-.18-.1-.22-.34-.18-.14.02.1.06.08.14.18-.12.1.04.12.22.32.26.56.04.14v.26l-.06.3-.02.12.04.18.1.2h0ZM131.53,134.12l-.04.06-.1-.04-.08-.08-.06-.12-.02-.1-.06-.1-.32-.32-1.61-2.4-.02-.1v-.14h.08l.1.04.04-.14.04-.22.04-.14h.1l.12.1.18.24.54.3.1.04-.02.08-.04.04-.1.04h.16l.12.02.1.08.06.12-.04.18.08.22.12.22.06.16.04.18.16.36.12.58.02.04.06.06v.12l-.02.24.06.22.02.14ZM126.83,129.77l.16.48-.36-.28-.75-1.03-.22-.24-.14-.1-.42-.08-.16-.1-.81-.73-.1-.16h-.04l-.18-.2-.04-.06-.08-.04-.04-.06-.02-.1-.04-.1-.26-.16-.66-.16-.26-.28-.06-.62v-.12l.14-.1.2-.02.14-.08.04-.26.12.02.14.08.24.18.1.1.1.12.16.26.22.44.26.22.04.04.04.14.14.26.04.14.02.02.18.34.18.18.26.18.26.08.22-.08.16.08.08.12.04.12.08.12.06.56.81.87h0ZM138.26,117.23l-.16.1-.14.12.14.08.08.14.02.16.06.14-.2.08-.1.02.08.1.02.1-.04.32-.06.22v.12l.18.3.02.18-.24.08h-.22l-.12.02-.04.08-.02.2-.16.69v.16l-.16-.12-.14-.22-.14-.18-.14.06-.12-.04-.18.04-.18.08-.14.12-.08.14-.08.22-.08.2-.14.08-.18-.08-.58-.52-.32-.24-.18-.08h-.24l.04-.14-.02-.16-.1-.14-.1-.12-.04-.14.1-.12.28-.16.28-.24.2-.32.16-.38.08-.42-.08-.64.04-.16.12-.18-.02-.2-.16-.42-.04-.2v-.08l.06-.06.08-.08.08-.1-.04-.1-.08-.16v-.18l.04-.16.08-.16.14.18.16-.04.22-.2.1-.06.08-.02h.06l.08.06.22.2.18.24.14.26.1.3.02.44.12.04.08.08.14.18-.08.1.06.06v.04l.02.04h.08l.16-.28.3.14.64.52v.08h0Z"/>
    <path id="PH03" class="cls-2" d="M106.16,102.26h-.1l-.18-.02-.12.08-.06.14-.06.2h-.02l-.04.02-.06.02-.02.08v.04h.06l.04-.02.02-.02.08.26v.1l-.1.28-.22.26-.2.26.02.3h-.16l-.06-.02-.08-.02.08.38.06,1.21h-.36l-.24.2-.2.26-.26.16-.4.08-.2.3-.22.28-.14.18-.26-.04-.08.1h-.06l-.08.02-.54-.18-.2.04-.1.16-.24.1-.12.06-.08.22-.24.08-.16-.14h-.22l.22.34.02.12-.22-.16-.14-.1-.04.08-.1-.12-.06-.14-.08-.08-.5-.2-.04-.06v-.06l-.04-.08-.12-.02-1.05-.04-.69-.1-.06-.02-.08-.04-.14-.06-.12-.1-.04-.12.02-.38-.02-.2-.08-.14v.44l-.02.04-.12.12-.04-.08h-.04l-.06.08.12-.75-.04-.18-.18-.02-.08.22-.04.48-.22-.12-.08.14v.56l-.1.73.02.22.42.48.04.12-.04.12-.02.18.2.79.04.5-.1.42-.26.3-.42.06-.1-.02-.06-.04-.08-.02h-.12l-.04.06-.02.08-.06.06-.14.04-.04-.04-.04-.08-.04-.08-.5-.14-.08-.04-.22-.28-.06-.3.06-.69-.04-.36-.12-.22-.44-.3-.12.08h-.1l-.1-.04-.04-.1h-.08l-.34-.5-.12-.34.2-.16.12-.04-.08-.08-.22-.14.04-.12.08-.1.1-.08.08-.1h.06l.06-.02v-.02l.06-.08.04-.12-.18-.02-.08-.02-.04-.08v-.12l-.04-.06h-.22l-.1-.08-.12-.16-.1-.06-.16.14.06.26-.04.38-.1.38-.14.2h-.14l-.2-.04-.16-.08-.08-.08-.06-.12-.26-.1-.12-.1.1-.04.04-.06.04-.06.04-.08-.04.02-.18.06-.24-.85-.08-.42.08-1.01-.04-.46-.38-1.59-.1-.12-.06-.04-.02-.1.04-.2v-.26l-.04-.08-.22-.34-.18-.36-.12-.18-.6-.6-.1-.2.04-.1.16-.1.02-.06v-.12l-.02-.06-.04-.16.2.12.22-.04.16-.18.08-.26-.02-.08-.06-.08-.06-.06-.04-.04-.04-.06-.02-.12-.04-.12-.1-.08v.04l-.06.1-.2-.42-.02-.14.02-.12.14-.3.06-.16-.04-.32-.18-.16-.22-.14-.16-.28.24-.06.06-.18-.06-.42.04.02.3.02.26-.04.24-.1.44-.46.26.02.54.3.16.02.3-.02.14.02.12.12.06.18.06.34.2.42.56.83.16.44.64-.34.26-.24.28-.58.18-.24.22-.16.24.04.5.24.14.1.14.04.18-.08.32-.22.28-.28.16-.36.12-.4.14-.38.08.12.08.16.12.3,1.19-.3h.32l.16.1.12.16.2.32.12.04.16-.16.14-.24.08-.16.18-.5.08-.16.12-.12.08-.06.1-.08.08-.16.08-.46-.1-.46-.32-.93.24-.22.38-.14.38-.04.36.02.87.2.46.18.32.22.2.36.06.38.04.83.14.48.46.89.18.48,1.93-1.65,3.91-3.3.69-.73,1.79-2.54,2.24-.04-.06.08-.06.1-.02.1v.22l-.04.06-.18.14-.08.16.02.12.12.32.08-.14v-.08h.08l-.08.38-.36.71.06.3.2-.18.18-.12-.04.16-.26.44v.08l.02.16-.02.08-.06.02-.18.02-.04.02-.3.4-.38.28-.32.36-.04.02-.04.04-.04.06-.02.08v.08l.02.08v.06l-.16.24-.46.3-.2.22-.06-.08.22-.3.1-.2.04-.22.1-.16.5-.34.08-.18.04-.26.1-.22.34-.2.08-.22-.06-.18-.3-.04-.22.1-.1.16-.04.2v.2l-.08.18-.16.1-.42.12-.62.34-.14.04-.4.06-.38.1-.14.12-.12.12-.16.1-.32.08-.12.08-.12.04-.08-.04-.1-.04-.08.04-.75.62-.06.12-.38.46-.52.26-.18.14-.1.2-.08.22-.08.48.02.26.16.4.04.2.12.1.26.04.24.06.12.22-.06.16-.46.54.18.04.1.04.1.06-.42.24-.18.14-.08.2-.06.2-.12.18-.58.48-.08.14-.1.71-.06.22-.1.18-.4.52-.18-.04-.12-.06-.1.06-.08.28-.02.5.12.46.24.38.32.26.04.02h0Z"/>
    <path id="PH02" class="cls-2" d="M114.78,87.61l-2.24.04-1.79,2.54-.69.73-3.91,3.3-1.93,1.65-.18-.48-.46-.89-.14-.48-.04-.83-.06-.38-.2-.36-.32-.22-.46-.18-.87-.2-.36-.02-.38.04-.38.14-.24.22-.14-.48-.12-.22-.18-.12-.97-.28-.02-.34.08-.36.16-.32.24-.24.16-.08.28.04.18-.1.18-.28.18-.44.14-.46.02-.34-.04-.38v-1.15l3.61-.62.48-.14.12-.1.12-.24h.02l.12-.1.04-.04.04-.06.04-.16.1-.16.02-.1-.02-.08-.02-.06.06-.12.02-.06-.02-.02.06-.04h.04l.02.02h.14l.08-.04.02-.1.3-.06.08-.04.08-.08.04-.1.04-.08.02-.04.12-.02.3.04.14-.02.26-.04.12-.04.12-.08.1-.12.16-.4.1-.1.08-.04.06-.08.06-1.13-.02-.22-.12-.42v-.2l.06-.46v-1.39l.02-.24.24-.62.1-.81.1-.24.48-.5.14-.28-.2-.32-.16-.14-.16-.1-.18-.08-.18-.08-.24-.12-.18-.18-.34-.44-.75-.83-.22-.3-.08-.18-.12-.44-.1-.16-.14-.16-.14-.02h-.14l-.2-.04-.26-.18v-.22l.14-.22.22-.22.08-.16.18-.52.93-1.77.16-.48.08-.52.02-.5-.08-.44-.24-.36-1.91-1.25-.54-.26-1.11-.36-.28-.2-.06-.18-.04-.18-.04-.16-.14-.06-.16.04-.1.14-.08.14-.1.12-.2.16-.16.16-.18.14-.28.1.18-1.23.1-.4.14-.18.24-.12.16-.06h.1l.22.02.12-.02.1-.06.12-.1.14-.08.12.06.08.04.12.04.24.02.12.04.08.08.04.12.08.08.54.26.28.26,1.07.54.14.14.16.1.34.1.81.54.08.04h.14l.08.04.06.08.06.1.08.08.5.16.22.3.18.3.22.2v-.06l-.16-.16v-.24l.1-.16.16.04.14.12,1.95.77.46.1h.22l.62-.08.14-.06.56-.32.42-.69.14-.1.2-.04.1-.12.02-.38.26-.81.08-.14.48-.04h.24l.16.08.08.18.04.46.06.18.08.12.3.26.1.06.22.3.08.46-.06.5-.14.48-.2.36-.28.36-.16.16-.36.26-.36.32-.06.08-.04.16-.02.14.04.1.04.08.02.1v.38l.06.36v.14l-.46,2.12v.12l.02.26v.08l-.06.14-.02.08.06.08.14.18.02.08.02,1.01.06.28.24.6.08.24.04.28.1.22.2.26.16.28v.28l.04.12.04.18.04.16.12.08.04-.02.06-.04.08-.02h.08l.2.18.1.06.12-.02.3-.12.12-.02.18.08.1.34.12.12-.04-.26.18.1.22.3.08.3-.2-.14-.1-.06-.06.1.02.16.1.32.02.14-.02.16-.1.34-.02.16.08.18.26.2.1.14.04-.04.08-.06.04-.04.16.04.1-.1.12-.08.2.14.1.2v.22l-.08.2-.14.18-.04.1-.04.14-.04.12-.1.06-.04.06-.12.26-.14.89.06.18-.18.34-.28.81-.52.91-.1.32-.2.48-.08.12-.14.16-.28.58-.14.2-.36.3-.08.1h0ZM105.84,60.43l.14.02.14.12.08.08.08.06.1.02h.12l-.26.18-.24.12-.26.06-.97.08-.24-.04-.18-.18-.04-.16.06-.04.2-.02.58-.2.38-.04.3-.06h0ZM111.96,59.67l.08.16-.02.14-.28.12-.22.32-.14.16-.38.32-.14.2-.06.22-.1.1-.2-.02-.14-.12.06-.16v-.22l.22-.18.14-.2-.22-.26.12-.12.08-.18.02-.16-.02-.08.08-.04.14-.24.1-.1h.06l.08.06.06.02.04-.04.02-.02.16-.08.06-.02.1.04.04.08.06.12.06.08.14.1h0ZM103.7,57.43l.08.06.04.08.08.46.16.42.06.4-.14.32-.38-.38-.14-.16-.08-.26.04-.26.16-.48.04-.26.08.06h0ZM107.15,55.88l.02.04v.04l.04.04.02.06.02.08-.04.06h-.1l-.1-.02-.06.02-.08.04-.02.08-.04.06-.08.04-.3-.12-.06-.06-.42-.24-.06-.02h-.16l-.08-.06-.06-.1-.12-.26-.34-.4.02-.06.18-.04.12-.06.18-.22.6.22.2.02.2-.04.16-.08h.12l.12.12v.54l-.02.04v.04l.02.08.12.16h0ZM111.94,52.79l.1.06.06.06v.06l-.06.14-.04.4-.1.16-.18.08-.16-.06-.24-.26-.2-.12-.08-.08-.02-.1v-.12l.04-.04.06.02.22-.06.16.04h.1l.08-.04.12-.14.08-.02.06.02h0ZM110.43,43.95l.18-.02.22.16.14.22v.18l-.24.26-.1.02h-.1l-.14-.54v-.22s.04-.06.04-.06ZM112.24,42.3l.1.02.08.06.06.1v.1l-.06.1-.38.26-.24.22-.06.08.02.14.06.1.04.08-.04.12-.14.14-.2.08-.18-.06-.06-.26.06-.18.44-.69.02-.1.16-.14.18-.12.14-.06h0ZM110.81,39.05l-.1.3-.18.28-.24.24-.28.08-.18-.14.06-.3.14-.34.2-.32.16-.38.08-.12.1-.08h.12l.08.12.06.16.02.16-.02.18-.02.16h0ZM111.46,35.63l-.08.02.06-.1.02.08ZM111.56,35.04l.04-.06.04.04-.06.12-.02-.1h0Z"/>
    <path id="PH00" class="cls-2" d="M103,107.28l-.12.18-.06.04v.14l.1.08-.18.34-.04.28.26.08.02.1-.06.24-.16-.04-.1.08-.04.14.08.16-.02.22-.06.1.06.1-.06.08.08.26.1.81.08.73-.83.04-.06.06-.04.02-.04-.04-.16.1-.12.1-.14.04.04-.3-.04-.12-.02-.04-.26-.44-.14-.1-.02-.3-.14-.2.12-.08.02-.04.08-.1.04-.22-.04-.26-.24-.38-.08-.22-.04-.18-.04-.28-.08-.16-.2-.3.04-.08.14.1.22.16-.02-.12-.22-.34h.22l.16.14.24-.08.08-.22.12-.06.24-.1.1-.16.2-.04.54.18.08-.02h.06l.08-.1.26.04h0Z"/>
    <path id="PH15" class="cls-2" d="M100.86,65.69l.28-.1.18-.14.16-.16.2-.16.1-.12.08-.14.1-.14.16-.04.14.06.04.16.04.18.06.18.28.2,1.11.36.54.26,1.91,1.25.24.36.08.44-.02.5-.08.52-.16.48-.93,1.77-.18.52-.08.16-.22.22-.14.22v.22l.26.18.2.04h.14l.14.02.14.16.1.16.12.44.08.18.22.3.75.83.34.44.18.18.24.12.18.08.18.08.16.1.16.14.2.32-.14.28-.48.5-.1.24-.1.81-.24.62-.02.24v1.39l-.06.46v.2l.12.42.02.22-.06,1.13-.06.08-.08.04-.1.1-.16.4-.1.12-.12.08-.12.04-.26.04-.14.02-.3-.04-.12.02-.02.04-.04.08-.04.1-.08.08-.08.04-.3.06-.02.1-.08.04h-.14l-.02-.02h-.04l-.06.04.02.02-.02.06-.06.12.02.06.02.08-.02.1-.1.16-.04.16-.04.06-.04.04-.12.1h-.02l-.12.24-.12.1-.48.14-3.61.62v1.15l.04.38-.02.34-.14.46-.18.44-.18.28-.18.1-.28-.04-.16.08-.24.24-.16.32-.08.36.02.34-.62.12-.3.02-.3-.06-.95-.36-.32-.08-.22-.58-.18-.66-.18-1.35.12-.6.34-.56.87-.97.26-.46.2-1.87.26-.4.4-.1h.44l.36-.18.16-.42-.02-.44-.06-.4v-.42l.12-.4.2-.4.28-.32.4-.14-.42-.24-.24-.08-.18.06-.24.32-.2.22-.26.02-.34-.24-.14-.24-.04-.24v-.22l-.08-.24-.1-.08-.28-.02-.12-.04-.08-.1-.04-.1-.06-.1-.1-.02-.32-.04-.24-.14-.16-.22-.02-.34.14-.28.24-.32.18-.34v-.32l-.14-.14-.24-.08-.26-.04-.2.02-.32.08-.1-.06.16-1.01.16-.46.22-.46.22-.38.16-.32.22-.36.24-.36.24-.26.3-.16.28-.04.28-.1.48-.52.3-.22.6-.36.3-.04.36.02.3-.04.22-.2-.04-.12v-.06l.14-.16v-.28l-.08-.6.02-.26.06-.2.1-.18.24-.32.04-.12-.04-.12-.08-.14-.16-.1-.22-.1-.2-.12-.08-.2.02-.16.1-.06.12-.04.12-.1.12-.22.02-.24-.04-.24-.04-.22-.04-.26.1-.54.02-.26h0Z"/>
    <path id="PH01" class="cls-2" d="M100.11,92.23l.32.93.1.46-.08.46-.08.16-.1.08-.08.06-.12.12-.08.16-.18.5-.08.16-.14.24-.16.16-.12-.04-.2-.32-.12-.16-.16-.1h-.32l-1.19.3-.12-.3-.08-.16-.08-.12-.14.38-.12.4-.16.36-.28.28-.32.22-.18.08-.14-.04-.14-.1-.5-.24-.24-.04-.22.16-.18.24-.28.58-.26.24-.64.34-.16-.44-.56-.83-.2-.42-.06-.34-.06-.18-.12-.12-.14-.02-.3.02-.16-.02-.54-.3-.26-.02-.44.46-.24.1-.26.04-.3-.02-.04-.02-.02-.04.04-.2.06-.16.02-.18-.04-.22-.18-.46-.12-.22-.14-.16-.28-.08-.16.16-.14.18-.16-.04-.04.06-.12.1-.16-.32.02-1.29.04-.2.16-.46.02-.22-.02-.1-.16-.18-.04-.12-.02-.34.02-.14.2-.73.06-.46.1-.22.12-.18.12-.12h.04l.12.02.06-.02.18-.12.04-.02.18-.06.22-.02.26.08.12.18v.22l-.26,1.07.14.08.48.12.1.06.08.1.3.32.1.08h.24l.14.02.12.08.2.2.08-.02.04.04.1.73.06.22.14.16.22.1.5.14h.24l.24-.04.18-.12.1-.04.38-.04.16.12-.08.3.12-.1.12-.24.12-.12.08.04.12.02.12-.02.04-.12-.06-.08-.14.02-.14.06h-.1l.04-.16.38-.32.1-.16.04-.12.22-.22.04-.14v-.48l-.06-.22-.12-.26-.34-.44v.22l-.06-.08-.06-.08-.06-.06-.26-1.85-.14-.42.08-.58-.1-.26-.14-.28-.1-.2.1-.1v.04l.04.02.08.02h.12v-.08l-.06-.14.02-.24.04-.26.2-.4-.02-.22-.08-.26-.04-.24v-.24l.04-.12.04-.1.06-.14.08-.06.08-.06.1-.1.52-.77.3-.48.08-.24.02-.28-.2-1.93-.04-.06-.1-.16-.02-.08v-.18l.1-.48-.04-.66.04-.06.2-.22.08-.12.04-.1.02-.1v-.14l-.08-.38-.36-.85v-.24l-.48-.12-.18-.1-.08-.2.22-1.37.1-.1.24-.04.18-.08.1-.18.06-.2v-.16l-.1-.16-.12-.14-.06-.12.08-.16.26-.3.06-.16.02-.26-.04-.38-.02-.1.04-.16.24-.36.24-.48.04-.14.02-.2-.02-.24-.04-.24-.06-.14.02-.16.6-1.29-.02.02-.04-.04-.02-.06v-.06l.04-.04h.04l.04-.04.02-.04.06-.14.32-.6.14-.36.08-.44-.02-.48-.12-.42-.12-.3-.02-.18.1-.18.22-.22.22-.2.18-.02.44.1.24-.02.48-.18.2-.04.18-.1.04-.22v-.26l.04-.2.14-.16.22-.1h.24l.16.08.18.2.26.46.2.14.18.02.22-.08.18-.1.08-.1.08-.1.18-.08-.14.18-.1.4-.18,1.23-.02.26-.1.54.04.26.04.22.04.24-.02.24-.12.22-.12.1-.12.04-.1.06-.02.16.08.2.2.12.22.1.16.1.08.14.04.12-.04.12-.24.32-.1.18-.06.2-.02.26.08.6v.28l-.14.16v.06l.04.12-.22.2-.3.04-.36-.02-.3.04-.6.36-.3.22-.48.52-.28.1-.28.04-.3.16-.24.26-.24.36-.22.36-.16.32-.22.38-.22.46-.16.46-.16,1.01.1.06.32-.08.2-.02.26.04.24.08.14.14v.32l-.18.34-.24.32-.14.28.02.34.16.22.24.14.32.04.1.02.06.1.04.1.08.1.12.04.28.02.1.08.08.24v.22l.04.24.14.24.34.24.26-.02.2-.22.24-.32.18-.06.24.08.42.24-.4.14-.28.32-.2.4-.12.4v.42l.06.4.02.44-.16.42-.36.18h-.44l-.4.1-.26.4-.2,1.87-.26.46-.87.97-.34.56-.12.6.18,1.35.18.66.22.58.32.08.95.36.3.06.3-.02.62-.12.97.28.18.12.12.22.14.48h0ZM90.58,90.76l-.12.02-.14-.1-.04-.08-.22-.18-.22-.28-.12-.08-.02-.1.04-.1.18-.18.1-.04.1-.02v-.06l.04-.06.08-.06.12.02.08.06.04.06.02.08.08.22v.48l.06.16.02.14-.08.1h0Z"/>
    <path id="PH07" class="cls-2" d="M130.66,169.28l-.12.18-.06.06-.1.02-.3-.02h-.08l-.06.04-.04.06v.08l-.04.1h-.08l-.18-.06h-.22l-.18-.04-.18-.08-.89-.62-.1-.16.04-.12.28-.24.18.1.26-.04.26-.14.32-.26.08-.06.04-.06.02-.18.06-.12.14-.04h.16l.14.04.1.16.16.32.08.06.18.08-.04.14-.1.14-.08.08v.12l.04.08.12.18h.04l.14.08.08.08-.08.04h0ZM140.21,162.67l-.04.14-.1.04h-.28l-.26-.04-.16-.04-.04-.1v-.1l-.02-.1h-.16l-.08.06-.32.34-.1.06-.14.04-.12.08-.04.12-.02.16-.02.1-.04.12-.08.1-.3.24-.48.2-.46.14-.38.02-.4-.02-1.69.12-1.39-.24-.48-.16-.22-.14-.1-.18.04-.24.08-.22v-.2l-.12-.14-.18-.02h-.22l-.18-.04-.08-.2.02-.24.06-.24.22-.44.14-.16.36-.32.08-.16.04-.14.08-.02.14.06.1-.04.06-.08.04-.1.06-.08.34-.14.5-.1.44-.2.2-.36v-.22l.06-.18.12-.1.32-.08v-.08l-.02-.08.02-.1.08-.08.14-.1.08-.04.16-.24.08-.06.2-.08.4-.08h.44l.73-.1.2.1.08.46.12-.1.16-.28.16-.08.02.14.1.2.1.14.14-.02.48.42.14.1.34-.02.1.04.2.12.3.16.12.12-.04.26v.2l-.04.1-.12-.18-.04.22v.16l-.02.1-.08.2.16.14.14.2v.18l-.2.08-.16.1.2.22.58.42-.26.58h0ZM132.05,164.43l-.42.32-.2.08-.22.02-.16-.04-.14-.26-.12-.1.02-.04.12-.04.1-.04.06-.08.12-.08.18-.12.42-.16.22-.04.2.14.08.1-.06.14-.2.2h0ZM140.11,158.99l-.16-.06-.14.06-.12.18-.1.08-.12-.08-.06-.1v-.1l-.02-.12v-.14l.06-.06.08.02.08-.02.04-.06.06-.04h.06l.1-.02.14-.1.06-.06.08-.02.14-.04v.08l-.12.18v.18l.02.14-.08.1h0ZM131.93,157.29l-.26.04-.16.1-.22.3-.58.46-.08.18-.02.22-.04.16-.1.12-.14.12-.08.06-.14.04-.06.06-.04.06-.06.08-.04.1v.95l-.14.58-.02.22-.04.08-.1.06-.1.04-.06.04-.99,2.34-.06.42-.18.52-.08.2-.1.1-.18.12-.1.08-.1.12-.14.24-.56.69-.12.1-.18.1h-.16l-.06-.24-.08-.62v-.24l.54-3.04.44-1.01.04-.22.02-.26-.04-.06-.22-.1-.04-.06.04-.34.04-.08.08-.04.06.04.04.06.04.02.04-.08.02-.1v-.24l.06-.28.14-.18.4-.32.38-.42.14-.24.14-.5.5-.71.18-.69.08-.18.2-.18.91-1.23.04-.18.02-.04.06-.06.04-.08.04-.1-.08-.36v-.14l.12-.22.26-.32.12-.44.14-.24.16-.24.4-.46.2-.3.73-2.06.2-.34-.06-.24-.12-.38.06-.2.12-.14.1-.16v-.26h.08l.04.08.04.06.14.08-.12-.58-.06-.12-.04-.16.08-.22.12-.2.52-.71.28-.2.32.08-.02.08-.06.32-.12.3-.06.22-.04.4-.06.2-.32.4-.12.18.1.04.04.08v.08l.04.04.22-.02.1-.02.08-.04-.02.22.1.64-.02.24-.08.34.02.2.14.26.02.12-.04.1-.16.26-.04.12-.04.26-.18.44-.06.24.04.44.28.89.04.4h-.02l-.08.04-.08.06-.04.04v.06l.06.04.02.06-.02.87-.04.18-.28.71v.08l.1.16-.04.1-.24.16-.02-.12-.06-.08-.06-.02-.08.08-.02.08.02.4-.12.04-.28.14-.3.16-.18.14-.24.36-.12.08-.26.02h0ZM131,147.42l-.14-.18-.26-.71-.04-.24.04-.14.06-.12.2-.22.14-.08.08.02.08.12.3.89.12.2.12.16.06.12-.02.06-.71.08-.04.04h0ZM126.89,155.62l-.22.48-.04.24-.02.73-.04.22-.34.66-.04.26-.02.26-.02.22-.08.2-.48.73-.1.28-.08.06-.08.08-.02.04-.16.5-.3.34-.14.18-.06.26.14,1.87-.06.26-.02.12-.02.14-.08.02-.1-.04-.08.06-.02.28.46.32-.08.28-.1-.22-.18.12-.1.22.2.12.3.04.1.12v.18l.08.26.14.14.22.16.22.16.16.5.18.2.22.18.18.22.08.44-.12.5-.2.44-.6.87-.04.18-.1.14-.75.46-.14.04h-.38l-.14.02-.2.1-.24.04-.16.1-.12.02-.44-.14-.36-.36-.26-.44-.44-1.09-.06-.73-.06-.2-.12-.18-.26-.26-.2-.14-.18-.04-.71-.04-.22-.04-.48-.26-.14-.04-.1-.04-.08-.08-.08-.12-.06-.06-.14-.04h-.14l-.12-.04-.02-.06,4.47-5.76,1.63-3.02.14-.34v-.34l-.34-1.31.26-.06.28-.1.26-.1.26.04.06.04.02.04.02.06.02.06.02.08.04.02h.06l.26.1.62.12.2.02h0ZM133.85,156.51l.12-.06.2-.14.04.06-.18.2-.22.2-.18.22-.14.14-.2.02-.12.08-.14-.1.02-.2v-.18l.14-.18.34-.16.12-.04.2.14h0Z"/>
    <path id="PH06" class="cls-2" d="M126.89,155.62l-.2-.02-.62-.12-.26-.1h-.06l-.04-.02-.02-.08-.02-.06-.02-.06-.02-.04-.06-.04-.26-.04-.26.1-.28.1-.26.06.34,1.31v.34l-.14.34-1.63,3.02-4.47,5.76-.08-.14-.22-.26-.2-.16-.22-.52-.16-.12-.12-.04-.08-.1-.32-.69-.1-.14.08-.1-.04-.1-.2-.18-.04.04-.12.06-.06.04.02-.14.08-.28-.02-.18-.06.04-.16.08-.08.04.02-.42.06-.4v-.36l-.16-.3v-.08l.12-.12.42-.75.18-.48.14-.08.22-.04.46-.1.24-.02.71.14.18.1.16-.1.54-.12.22-.12.58-.6.26-.18.22.12.2-.1.28-.36.08-.2-.04-.26-.14-.46-.08-.48.16-1.33-.12-.48-.4-.87-.08-.46.1-.2.2-.08.2-.06.1-.06.06-.12.38-.38.1-.22.14-.34.02-.1.4-.69.04-.24-.04-.71-.04-.06-.16-.1-.04-.06.02-.24.02-.08.04-.1.1-.12.28-.34.1-.06.48-.02.22-.04.22-.08.89-.56.46-.22.5.02.02.04.04.08.04.08.08.02h.26l.12.08.18.18.14.06.12-.02.28-.12.12-.02.14.08-.02.08-.08.1.02.12.1.06.08-.04.08-.1.12-.08.16-.02.12.02.1.04.38.1.2.08.16.16.06.44.06.1.14.2.04.02h.04l.04.02.04.04v.06l-.04.5-.1.2-.3.44-.18.42-.34,1.45-.12.26-.91.97-.12.18-.14.32h0ZM119,155.06l-.42.12.1-.3h-.12l-.18.14-.06.08-.06.04-.2.14-.12.04-.06-.04-.04-.1-.08-.22v-.24l-.06-.02-.12-.04h-.04l-.04-.04-.1-.1-.04-.12.14-.04h.12l.12-.02.06-.04.04-.14.02-.08.18-.08.08-.1-.2-.04-.08-.18.02-.24.08-.16.12-.16.18-.34.12-.14.16-.1.2-.04.16-.06.1-.42.12-.16.16-.12.12-.16.32.24.12.06.28.44v.6l-.18.6-.36.87-.24.38-.32.3h0ZM124.21,142.91l.26-.28.16-.28h.06l.02.66-.08.18-.08.02-.12.02-.12.04-.06.06.02.12.06.04.1.02.12-.02-.1.16.08.04.24-.04.04.14-.06.14-.08.16-.04.18.04.32v.14l-.12.22v.06l-.02.04-.2.02-.04.06v.06l-.04.1h.02l-.02.3v.02l-.06.2-.02.18.02.38.02.1.08.06.08.06.04.16-.06.16-.22.16-.02.16-.24-.1-.28-.08-.2.06-.14.58-.14.2-.22.14-.24.1.04.14-.04.1-.24.14.02-.12v-.1l-.06-.08h-.08l-.06.04-.04.24-.06.1-.1.02-.08-.04-.08-.04-.1-.02-.06.02-.24.2v-.14l-.26.1-.28.22-.24.24-.1.22.06.34.08.28.04.26-.12.34-.26.38-.18.16-.18.06-.1-.02-.18-.1-.08-.02-.08.02-.22.12-.12.04-.14.06-.12.08-.18.14-.04.06-.1.16.02.02.02.06v.06l-.1.08-.06.24-.48.1-.79.02-.24.02-.93.14-.08.02-.14.12-.06.02-.36-.02-.12.02-.12.04-.14.12-.1.06h-.12l-.12-.04h-.12l-.12.08-.44.36-.14.08-.1.02h-.12l-.12.02-.3.22-.66,1.13-.08.08-.18.16-.36.16-.34-.02-.22-.38.02-.46.44-.81.12-.46v-.24l-.06-.69-.08-.18-.28-.3-.08-.24.02-.2.16-.32.06-.34.2-.56.73-1.23.08-.5v-1.87l-.02-.24-.08-.24-.02-.26.08-.22.12-.2.06-.22.08-1.31.02-.04.06-.06.06-.08.22-1.79-.06-.4-.18-.34-.26-.1h-.34l-.4-.08-.36-.16-.18-.04-.22-.02h-.42l-.18-.02-.12-.06.02-.04v-.08l.12-.16.12-.12.08-.06.04-.1.02-.22.02-.22-.04-.12.04-.16.04-.1.1-.04h.16l.06-.06.14-.2.08-.04.08-.02.06-.06.04-.02.1.04.04.08.04.06.04.06.38.1.12.08.24.32.2.2.24.16.26.12,1.19.26.4.16.36.26.24.2.16.08.44.02.12.08.42.64.14.12.14.04.12.1.5.5.64.26.18.12.04.1.02.06.04.2.06.16.2.08.06-.02.14-.1.14-.06v-.1l-.02-.1-.02-.06.04-.18.08-.04.14.1.12.16.08.04h.12l-.1-.14.02-.08.08-.04.08-.04.2-.24.04-.1-.04-.04-.02-.04-.04-.04.34-.02.4.02.4.06.26.16.08.16.06.18.08.14.12.06.14.02.48.2-.54.38-.2.24v.2l.26.1.3-.14.3-.22.28-.1.28-.08.38-.32.5-.14.3-.2h0ZM105.84,137.59l-.04.16-.12.14-.2.02-.12-.12-.08-.18-.04-.16v-.08l.08-.24-.04-.1-.06-.08-.04-.06.06-.12-.02-.08v-.04l.1.06.4.52.08.16.04.2h0ZM107.01,139.6l-.08.1-.24.12h-.24l-.18-.06-.12-.04h-.06l-.04-.04-.06-.04-.04.02-.08.04-.06-.02.02-.1.12-.14.18-.06.1-.02.24.02.38.12.16.1h0Z"/>
    <path id="PH12" class="cls-2" d="M147.43,186.39l-.02.1.1.12.04.12-.02.14-.34,1.15-.08.56v.16l.06.28.02.38.08.48-.02.2-.04.08-.12.18-.12.28-.02.06.14.16.14.14.38.22.14.14.06.18.04.62.04.14.04.04.02.04-.06.08h-.02l-.06.04-.26.08-.06.04-.04.04v.5l-1.11,1.21-.18.69.06.5.06.14.26.3.08.18.02.16-.18,1.09-.1.24-.04.56-.06.26-.08.1-.08.06-.04.08v.08l.02.04.04.02.08.02.1.04.06.04v.28l.1.06.26.14.14.1.36.36.16.1.14.04.1.02.28-.04.5.08.24-.02.1.06.08.06.2-.1.1-.02h.12l.1.02.2.18.26.5.24.38v.12l-.06.14-.02.14v.12l.02.22v.2l.08.12.08.1.06.08.04.1v.14l-.06.3-.02.08-.04.06-.04.06-.06.04v.2l-.34,1.05-.02.1.02.56.02.1v.08l-.06.02h-.08l-.04.04-.93,2.14-.14.18h-.02l-.16.12-.38.2-.06.04-.04-.1-.02-.85-.06-.22-.08-.16-.1-.12-.14-.06-.24-.02-.06-.04-.06-.08-.04-.12-.02-.1-.06-.12-.1-.06-.12-.02-.08-.04-.12-.22.04-.16.1-.16.04-.18.04-.16.08-.18.18-.28.4-.5.16-.32.02-.44-.04-.18-.14-.38-.04-.14-.1-.1h-.1l-.12-.02h-.4l-.14-.12-.12-.06-.1.04-.04.1.02.28-.02.1-.1.16-.36,1.05-.26.75-.2.24h-.2l-.52-.1-.42.14-.26-.06-1.09-.52-.28-.08-.48-.2h-.12l-.14.02-.1-.02-.28-.1-.69-.4-.08.06-.32-.14-.12-.08-.04-.06-.02-.1-.04-.1-.08-.04-.18-.04-1.51-.87-.56-.24-1.33-.58-.2-.12-.28-.26-.14-.2-.14-.4-.12-.18-.73-.77-.28-.4-.18-.38-.12-.56-.02-.22-.08-.24-.02-.12.06-.06h.16l.04-.06-.02-.06v-.95l-.02-.24-.2-.69.04-.3h.02l1.97-.02.26.04.06.1-.04.1v.1l.2.02,2.22.02.5-.08.42-.22.2-.42-.02-.1-.08-.3.12-.12.24-.08.44-.14-.04.18.79-.02-.18.75.28.06.22.3.2.38.2.3.32.26.3.16.34.06.44-.02-.24-.28-.1-.2.02-.22.18-.28-.54-.32-.08-.1-.06-2.26-.4.02-.1-.08-.06-.2v-.16l.02-.18.06-.18.06-.08.06-.2-.2-.44-.4-.66-.02-.02-.04-.06-.16-.2-.26.28-.06.12.06.2.12.12.14.12v.06l-.1.08-.3.16-.2.18.18.24.14.08.12.16.06.16-.04.16.06.06.06.04-.14.1-.16.3-.12.08v.02h-.16l-.14-.06-.14-.1-.14-.06-.34-.06-.14-.06-.18-.12-.04-.08-.02-.06v-.3h-.06l-.22-.18-.18-.04-.2-.02-.14-.06-.14-.08-.14-.14-.12-.18v-.08l.38-.91.1-.26-.02-.16-.14-.08-.28-.04-.18.04-.14.12-.22.32-.14.16-.08.06-.04.02-.12.04-.2.02-.08-.04-.16-.06.08-.26,1.73-2.54v-.18l-.1-.22-.3-.38-.08-.38.18-1.41.44-.22h.18l.2.12.06.1.12.2.1.12.16.1.1.06.12.04h.48l.54-.08h.3l.69.18.2.02.04.1.04.22.02.1.1.14.1.08.1.06.12.12.06.12.04.14.08.26.02.42.02.12.06.1.08.12.1.08.1-.1.08-.08h.02l.08-.02.08.02.22.08.14.16.18.12.12.02.06-.04h.02l.04-.08.06-.06.24-.06.02-.04.14-.04.12-.04v-.02l.08-.12.04-.28.04-.1.14-.08.36-.14.18-.08.22-.16.46-.56.02.02.08-.04.08-.04h.02l.02-.02.02-.06.02-.04.04-.02h.08l.22.06h.1Z"/>
  </g>
</svg>